<?xml version="1.0" encoding="UTF-8"?>
<svg id="Layer_1" xmlns="http://www.w3.org/2000/svg" version="1.1" viewBox="0 0 1376 554.3">
  <!-- Generator: Adobe Illustrator 30.1.0, SVG Export Plug-In . SVG Version: 2.1.1 Build 136)  -->
  <defs>
    <style>
      .st0 {
        fill: #b76e79;
      }
    </style>
  </defs>
  <path class="st0" d="M112.09,421.94c1.42-10.78-9.46-22.26-11.21-30.06-1.24-5.5,1.21-12.07,2.19-19.3,23.24,20.76,49.67,34.84,79.89,42.21,62.39,15.22,137.37,10.53,196.75-14.23,4.95-2.07,8.82-5.02,10.81-10.23l4.88-12.77c.38-.99,2.48-2.74,3.47-2.78,1.19-.06,3.03,2.14,3.26,3.38l4.2,21.99c3.96,20.79,29.54,18.97,45.26,13.99,12.95-4.1,25.06-9.47,37.39-15.47l-38.5-12.73-8.52,2.18c-10.49-1.81-19.63-2.78-30.51-2.77,1.61-5.03,3.17-13.08,7.62-16.44,9.59-7.23,22.13-6.05,32.97-2.23,31.46,11.06,63.62,23.98,97.9,21.8-1.02,6.6-3.44,12.83-6.79,18.83-11.52-.94-22.84-2.78-34.02,1.69-7.08,11.77-10.64,27.24-8.91,41.47s12.78,23.79,25.87,27.37c18.04,4.93,36.08,2.17,53.38-4.57,22.09-8.6,42.35-19.77,59.25-37.21-1.31-1.7-3.74-3.05-5.78-3.57l-45.92-11.78,3.83-18.83,23.89-5.05c5.16-1.09,19.37-6.03,19-12.59-.38-6.83-15.94-6.54-21.22-6.42s-13.45.22-16.56-5.47c-6.83-12.51-1.29-29.92,11.52-36.34,4.8-2.4,10.9.46,14.54,3.48,15.23,12.61,22.26,42.59,12.98,60.93-2.04,4.03-6.36,6.75-10.37,10.26l11.19,3.38c4.41,1.34,9.1,4.82,10.52,9.48,6.9,22.64-17.43,40.48-34.1,51.14-15.71,10.05-32.01,17.82-50.24,22.35-16.94,4.21-34.63,2.37-49.47-6.4-26.98-15.94-22.71-53.25-11.11-79.37-25.35,7.75-64.59,34.36-89.26,20.86-5.89-3.23-9.06-9.68-10.4-16.06l-4.8-22.84c-5.06,6.69-4.31,14.64-9.91,19.42-6.5,5.56-14.83,8.82-23.32,11.64-59.18,19.69-122.58,23.38-183.29,8.96-22.48-5.34-42.28-13.88-61.44-27.56,2.81,15.52-.79,29.34-10.91,40.45-13.33,14.64-28.87,26.57-46.38,35.99-8.24,4.43-17.62,7.11-26.84,5.88-29.82-3.97-30.23-59.89-13.81-81.09.74,7.42-3.01,13.52-4.44,20.24-3.47,16.38-2.91,39.78,18.17,42.81,7.14,1.03,14.35-.46,21.01-3.48,17.91-8.13,44.94-27.99,56.33-44.54h-.01ZM619.09,358.98c-3.45-5.35-8.51-6.31-13.62-4.6-1.33.45-3,4.61-1.63,5.1,4.89.4,10.49.15,15.25-.49h0Z"/>
  <path class="st0" d="M912.38,468.93l-7.49,8.34c-11.84,13.17-32.07,18.32-48.04,9.28-18.42-10.44-45.55-42.6-65.4-56.59,5.63,9.48,12.26,16.94,15.56,27.22,3.06,9.53,2.01,22.1-5.01,29.39-11.01,11.42-27.05,12.54-42.02,7.59l-4,13.92c-.58,2.02-3.43,3.38-5.49,2.49-12.54-5.39-18.9-16.18-20.19-30.52l-8.84,7.99c-9.86,8.91-24.73,11.92-36.5,5.17-16.3-9.34-15.34-42.47-16.05-59.42-1.19-28.6-3.62-56.33-6.46-84.66l-15.47,4.86c.41-3.7.99-7.47,1.76-10.13l11.68-4.96c-3.24-12.68-2.13-18.04,5.24-30.53l5.27,27.23,48.38-17.27,25.72-8.95c.49,3.56-.27,8.06-2.42,11.02l-70.32,25.04,1.9,22.58,5.3,86.96c.48,7.9,4.28,16.66,10.93,20.26,13.7,7.4,29.27,1.44,37.95-10.49,3.61-4.96,7.04-9.15,11.5-13.88,3.32,12.09,9.19,19.48,19.71,23.59,11.21,4.36,23.86,5.81,35.08.77,1.96-.88,4.62-2.87,5.11-4.43s-.7-5.16-1.86-6.77c-14.6-20.4-30.68-38.55-47.74-56.98-9.46-10.21-19.68-18.93-27.73-30.57-5.16-7.45-3.01-20.94.31-28.78,4.57-10.75,37.49-24,48.42-27.78l88.81-30.72c6.91-2.39,30.42-9.13,35.29-4.58,8.37,7.83-7.04,28.33-10.33,36.86l54.14-18.63c.15,3.63-.29,7.3-1.24,10.55l-56.39,19.49c-4.69,1.62-7.89,3.16-10.59,7.41l-15.17,24c-2.04-9.72,5.07-15.8,7.41-24.84l-32.08,11.07-58.62,20.43c.2-3.68.66-6.55,1.61-10.69l99.2-34.55c6.34-6.52,10.91-13.94,15.65-22.76-2.79-.9-5.4-1.22-7.93-.57-31.6,8.18-62.02,17.35-92.35,29.33-20.45,8.07-40.12,15.68-59.89,27.03,31.68,23.02,61.03,44.51,88.04,70.51l33.58,32.33c15.19,14.62,42.99,16.47,56.96-3.28,2.79-3.95,6.7-7.55,11.14-9.71,1.19,8.1-.19,13.79,5.7,19.28,7.95,7.42,27.89,4.92,30.1-7.62,3.4-19.32-16.67-39.66-2.03-60.98,9.77,20.6,6.45,38.38,14.16,59.42,1.83,4.99,6.37,9.32,10.14,10.82,5.41,2.14,11.54.65,16.25-1.67,4.21-2.08,6.03-5.24,4.24-9.79-6.39-16.22-8.13-12.1-3.47-33.7,6.15,5.58,8.1,12.89,9.98,20.62,2.79,11.48,2.43,23.7-4.48,33.57-6.03,8.62-17.74,12.93-27.14,8.24-7.52-3.75-10.5-11.48-13.66-19.63-2.63,6.83-5.21,13.84-11.19,18.51-8.85,6.91-21.82,6.79-28.68-2.56-2.7-3.67-3.28-7.55-5.95-14.2l.02.02h0Z"/>
  <path class="st0" d="M283.54,224.65c-6.01,3.58-15.6,1.9-19.89-3.25-3.83-4.58-4.86-10.3-6.92-16.29-2.26,2.4-4.93,5.25-7.33,8.24-11.83,14.79-31.55,18.97-48.42,8.98-10.36-6.14-18.82-15.03-27.6-23.49l-19.9-19.21c-4.33-4.19-8.67-7.48-14.42-10.61l11.36,17.26c7.13,10.84,8.23,26.46-.59,36.84-6.98,8.22-19.02,10.82-29.24,9.42l-12.66-1.73-2.24,10.95c-.26,1.23-2.02,3.61-3.19,4.02s-4.13-.04-5.21-.69c-13.66-8.16-14.7-12.64-17.4-29.13-9.84,14.28-31.48,23.62-45.82,11.57-5.36-4.51-8.91-11.78-10.33-18.87-3.28-16.48-3.4-32.58-4.16-49.53-1.21-26.97-3.67-52.97-6.87-79.69-.97-8.1-6.27-9.96,4.89-27.82,5.21,18.74,7.23,36.36,8.23,55.01l3.86,72.56c.8,15.07,3.4,35.8,21.29,36.05,13.33.18,23.73-6.69,30.54-17.84,2.08-3.39,4.72-6.36,8.69-7.71,6.98,33,55.36,26.81,57.95,18.79,1.78-5.51-19.78-30.21-24.79-35.63l-48.81-52.74c-3.27-3.53-4.93-7.38-4.82-12.29.15-6.36-.7-13.52,2.8-18.99,4.26-6.65,11.33-11.3,18.65-14.69,27.16-12.6,54.86-22.03,83.34-31.7,17.38-5.91,33.69-11.54,51.59-15.55,4.02-.89,11.26-2.11,13.88,1.45,8.02,10.94-16.21,42.1-22.43,51.55l-15.67,23.85c-2.62-20.86,27.36-42.44,30.83-59.97-21.26,4.07-39.6,10.64-59.01,16.99-19.37,6.34-37.67,12.97-56.58,20.49-13.36,5.31-26.49,10.24-38.98,18.58,42.04,28.71,71.48,53.17,106.22,87.86,4.92,4.92,10,9.29,15.24,13.63,17.05,14.1,40.96,10.34,53.67-7.55,2.18-3.06,5.15-5.31,8.76-6.77.87,4.31.94,7.98,2.09,11.68,3.16,10.17,16.6,13.6,24.93,7.45,3.09-2.29,3.97-7.28,3.7-11.39l-7.96-121.48c-.57-8.67,2.22-16.42,7.14-23.61,1.57,7.49,3.36,14.12,3.78,21.29l4.74,80.26,2.59,35.01c.59,7.98,1.41,17.55,8.9,22.44-11.87-19.36-11.28-43.66,8.69-57.91,19.18-13.68,44.89-9.7,59.23,11.42l-18.43-2.97c-14.62-2.36-29.07.66-42.34,6.56-4.19,1.86-6.11,6.47-5.2,10.86,3.51,16.94,19.29,36.95,38.55,31.6,16.06-4.45,29.28-12.69,43.02-23.54-1.41,6.85-3.7,14.66-9.02,19.67-14.3,13.45-32.32,21.55-51.51,25.6-10.26,2.17-21.33.7-29.7-5.79-5.12-3.99-6.87-11.11-9.46-16.83-3.25,6.37-5.75,13.37-12.3,17.29l.06.06h0Z"/>
  <path class="st0" d="M790.56,231.04l-1.98,10.28c-.29,1.48-1.96,3.82-3.08,4.44s-4.15.21-5.51-.39c-11.84-5.25-16.5-16.77-17.5-29.49-8.18,10.11-18.07,17.01-30.33,17.15-18.62.2-26.32-18.23-27.34-33.52l-2.61-39.43-54.79,19.39c-.11-4.21.49-7.38,1.99-10.65l52.19-18.29c-1.51-25.07-3.14-50.19-7.42-75.03-.9-5.24-1.81-8.99.3-13.87,1.59-3.66,2.3-6.84,5.89-10.33,4.52,17.58,6.31,34.37,7.45,52.12l2.79,43.59,43.75-15.12c-.19,4.2-.5,6.91-1.13,10.19l-42.01,14.81,1.65,27.03c.86,14.01,5.01,32.63,22.6,31.54,11.21-.69,20.51-5.98,26.55-15.2,2.61-3.99,5.28-7.16,9.79-11.3,4.26,14.13,12.82,22.19,26.3,24.82,10.19,1.98,26.61,2.2,32.71-5.58,3.11-3.97-21.94-31.84-26.29-36.57l-44.32-48.26c-5.4-5.88-9.6-9.95-8.35-19.21.74-5.48.39-13.01,4.52-17.88,4.41-5.21,10.54-9.1,17.14-11.93,43.37-18.68,87.39-34.14,132.9-46.86,5.14-1.44,11.13-1.51,15.77-.27,2.91,7.42,1.21,15.86-2.57,22.61-12.31,22.03-23.02,33.3-35.68,54.94-.59-9.17,3.08-17.34,8.17-24.43l21.07-29.33c1.54-2.14,2.36-5.17.8-7.38-37.4,9.73-73.3,21.43-108.84,35.53-15.44,6.13-30.23,11.69-44.65,20.54,38.99,26.35,73.21,55.08,105.72,87.17,22.37,22.08,46.04,38.89,77.81,22.6.4-6.34.58-11.92.07-18.02l-7.01-82.73-3.42-46.37c-.23-3.17-2.4-8.03-2.97-11.11,2.11-5.87,3.78-9.99,7.12-16.29l11.8,29.83c1.14,2.87,1.23,5.92,1.14,10.01l-6.95-6.21,6.74,87.65,2.02,32.06c.89,14.17-.55,35.46-15.73,41.51-25.34,10.11-50.73-1.92-69.26-19.59l-34.89-33.27c-3.59-3.43-8.03-6.22-12.13-8.85,5.46,8.09,11.47,15.23,15.54,24.31,4.24,9.47,2.82,22.27-3.49,30.4-8.9,11.45-27.92,11.25-42,8.24h-.02,0Z"/>
  <path class="st0" d="M1155.6,538.21c-33.19,12.68-63.93,21.51-99.34,10.08-34.89-11.26-44.79-47.99-38.3-80.86,5.26-26.65,17.97-49.58,39.06-67.36-9.76-8.73-19.88-16.78-34.62-11.67,1.06-5.69,3.46-12.66,7.25-17.78,25.19-13.79,55.01-12.83,80.19,1.95l-4.74,16.3-20.81,9.75c12.87,11.44,40.85,6.2,52.16-7.03,3.51-4.1,10.34-14.86,12.57-13.73,4.22,2.13,3.15,18.31,24.36,23.3,21.24,4.24,46.3-4.91,65.76-15.18l-39.36-13.32c-3.83,1.26-9.06,2.92-13.08,1.65-9.01-1.35-16.59-1.84-25.83-2.14l7.13-16.16c18.23-10.46,32.46-3.09,51.26,3.62,25.3,9.03,52.52,17.62,80.6,16.09-1.74,6.44-3.99,12.53-6.9,18.59-52.69-7.84-74.39,33.35-123.45,24.84-3.37,2.58-2.57,17.71-8.17,16.37-9.61-2.29-17.12-9.25-19.49-18.6l-3.15-12.48c-12.69,17.39-34.72,23.86-53.75,14.97-5.86-2.74-10.66-7.3-16.73-10.54-14.13,8.82-25.68,20.05-34.19,34.27-16.31,27.23-16.13,64.94,14.46,81.88,11.19,6.2,23.44,8.93,36.39,9.57,14.81.73,29.47.51,44.19-.95l42.32-4.2c-5.18,4.28-9.98,6.59-15.76,8.8h0ZM1084.1,382.04c-9.53-2.74-15.71-2.97-24.47-1.91l12.77,9.31c4.5-2.43,8.27-4.66,11.7-7.4Z"/>
  <path class="st0" d="M653.91,205.48c.11-9.58,3.17-18.23,9.59-24.45,4.85-4.68,12.25-3.8,17.65.18,17.82,13.12,24.31,45.86,6.87,64.72-15.76,17.05-36.14,30.04-57.99,37.83-17.62,6.27-34.28-2.57-39.76-19.79-4.01-12.59-1.92-24.89.48-37.4-4.69-8-9.02-17.12-9.53-27.16l-2.68-52.21-2.36-25.36-52.33,18.22c1.85,21.66,3.85,43.01,2.74,64.77-.73,14.04-7.18,24.45-18.86,31.64-25.24,15.56-89.35,41.93-104.59,1.42-6.39-16.98-4.55-37.92,7.66-52.01-1.73,12.01-5.73,21.28-4.33,32.05,3.63,27.92,41.05,26.35,60.85,20.23,18.94-5.86,36.09-13.76,51.51-26.92l-4.47-67.79-21.5,7.02c-.26-2.59.23-7.75,1.98-9.65l18.88-7.03-4.57-58.37c-.2-2.6-2.52-7.18-3.05-9.8l7.23-16.72c5.24,14.2,9.25,25.48,12.55,40.42l-6.85-5.63,4.23,46.82,52.33-18.72c-1.26-14.85-3.73-28.38-6.15-42.87,1.12-5.83,3.84-12.31,7.74-18.03,4.05,19.65,6.18,37.5,8.24,57.08l13.25-3.92-.75,10.1-11.55,3.86,2.65,52.37c.59,11.69.8,22.89,4.51,33.85,4.86,14.36,26.07,13.47,36.64,4.97-.15-6.62-9.89-19.05-8.75-23l4.69-16.35c10.59,13.42,13.37,30.64,8.67,46.13-2.7,8.9-9.2,14.79-18.01,16.53-7.8,1.55-14.7.85-22.66-3.52-1.7,7.26-2.55,15.02-1.07,22.42,1.78,8.88,8.37,15.24,17.4,16.24,8.37.93,17,.09,25.04-3.11,20.22-8.06,38.1-20.32,53.42-35.66,1.46-1.47,2.88-4.44,2.29-5.85s-3.63-4.07-5.29-4.09l-18.68-.17c-7.51-.07-13.43-5.06-13.33-13.26l.04-.03h0ZM679.07,200.92c-1.54-3.05-4.52-5.31-6.98-5.7-3.95-.64-8.1.45-8.08,5.3,4.71,1.02,10.18,1.12,15.07.4h-.01Z"/>
  <path class="st0" d="M974.59,212.51c2.82,2.48,7.88,1.19,9.72-2.03,2.08-3.65,3.73-7.71,4.8-11.74l10.06-38.06c1.03-3.9,7.95-17.07,13.68-17.39,6.64-.38,2.75,22.39,1.84,27.11-2.11,10.91-6.5,33.75,5.51,39.97,8.77,4.55,20.99,3.13,28.08-4,14.59-14.66,6.24-44.32,1.22-62.01-.5-5.72,3.04-12.93,6.01-18.71,6.14,14.31,9.46,28.61,11.33,43.73,1.6,12.88,4.84,34.75,18.84,37.71,6.45,1.36,14.1.76,18.13-5.73-5.68-19.74-10.57-21.89-14.79-43.93-3.82-19.88-8.46-14.62,1.5-34.74l11.73,18.35c1.56,2.46,2.75,6.69,3.34,9.18l-7.58-2.26c4.87,23.04,21.67,42.22,9.59,65.07-3.7,6.98-10.17,11.69-16.71,12.38-16.03,1.69-24.22-10.63-29.49-25.15-2.32,6.71-4.42,12.93-8.54,18.49-8.66,11.68-25.03,15.73-37.39,7.58-18.24-12.03-10.28-42.59-7.88-60.67-2.28,3.07-4.7,6.95-5.58,10.82l-6.68,29.15c-1.43,6.22-3.34,12.75-6.81,17.79-3.67,5.34-9.95,6.16-14.96,2.44-16.43-12.16-14.26-48.84-4.93-64.22.49,16.98-7.92,38.69,5.97,50.91v-.02h0Z"/>
  <path class="st0" d="M1123.78,241.3c-6.69-17.35-4.25-36.75,5.84-52.19,7.17.88-6.2,13.52-1.59,34.1,6.37,28.44,44.98,23.68,65.89,17.07,10.19-3.22,50.3-19.44,53.75-29.84l-8.82-124.89c-.5-7.17-1.88-12.57-4.03-19.38.29-4.69,3.68-10.46,7.25-15.94,5.29,13.03,8.89,25.25,12.53,39.21-3.23-1.89-3.82-2.65-6.84-5.14l6.68,81.47c1.27,15.5,1.63,30.32-.12,45.37-1.31,11.23-7.14,19.18-16.61,25.26-19.26,12.36-40.89,20.65-63.57,25.41-19.32,4.05-42.4.16-50.37-20.52h.02Z"/>
  <path class="st0" d="M1345.79,185.48l3.85-17.68c12.39,14.68,15.98,40.53,3.63,55.73-6.02,7.41-17.87,10.45-26.94,7.93-23.6-6.58-22.51-42.37-23.54-62.2l-1.91-36.54-33.38,11.23c-.21-3.57.39-7.09,1.64-10l31.43-11.52-7.02-55.95,4.21-12.91c.22-.74,3.34-2.59,3.57-1.57,5.15,22.19,7.61,44.27,8.98,67.45l65.32-23.09c.89,4.28.21,7.93-2.11,10.67l-62.71,21.94,1.24,37.78c.36,10.98,1.79,21.62,3.93,32.2,2.52,6.54,5.64,12.65,12.72,14.4,8.98,2.23,17.96-.18,25.54-6.03-.52-6.47-9.31-17.84-8.44-21.84h0Z"/>
  <path class="st0" d="M1294.22,491.23c-15.44,10.55-43.72,22.32-62.34,24.79l89.9-62.91c5.72-4,34.48-26.87,32.94-32.97s-17.77-5.39-23.06-5.06c-8.19.52-14.98-3.48-16.37-11.98-1.86-11.44,3.3-23.91,13.81-29.96,3.95-2.28,10.11.12,13.56,2.57,8.83,6.26,13.28,15.36,16.23,25.49,3.96,13.65,2.26,27.53-6.24,39.35-6.24,8.69-13.73,16.5-22.12,23.35-11.91,9.73-23.6,18.62-36.32,27.32h-.01ZM1341.25,397.03c-1.98-4.18-5.1-6.08-8.13-6.36-4.03-.37-7.27.06-8.75,5.85l16.87.51h.01Z"/>
  <path class="st0" d="M312.71,368.67l-89.15,30.9c.11-3.65.77-6.64,1.81-10.81l235.55-82.19,80.94-28.28c.26,3.59-.39,7.7-1.71,10.36l-16.47,5.91-44.16,15.43-166.82,58.68h.01Z"/>
  <path class="st0" d="M438.92,285.77c5.97-4.84,12.05-6.36,18.55-8.63,34.29-11.98,75.39-35.56,102.39-60.42-.12-3.39-1.31-6.82-2.59-9.96l-9.86-24.06c-1.22-2.98-2.78-6.87-1.91-9.98l3.43-12.29,17.63,22.62c-1.54.68-2.8,1.03-5.19,1.65l3.61,8.92c6.75,16.73,2.32,34.51-11.4,46.25-18.06,15.46-37.26,28.7-58.79,39.14-13.35,6.47-39.02,7.2-55.85,6.74h-.02,0Z"/>
  <path class="st0" d="M1214.33,282.65c-16.59,4.49-33.14,6.59-51.35,4.5,9.76-6.82,20.81-8.36,31.56-12.88,31.54-13.26,60.44-30.84,86.58-52.58,4.5-3.74,3.71-6.84,1.74-11.51l-13.31-31.58c.87-4.66,2.2-9.61,4.09-15.81,7.22,7.6,12.1,14.31,17.12,22.99l-5.59-.42c2.55,6.6,5.77,12.8,7.27,19.77,2.6,12.1-2.4,24.57-11.36,33.2-14.51,13.97-30.93,24.86-48.1,35.43-5.64,3.47-11.68,7.01-18.65,8.9h.01Z"/>
  <path class="st0" d="M1157.85,197.06c.87,11.15-.76,21.99-6.06,31.81l-8.46-94.86-3.14-51.39c-.71-11.69-2.32-22.55-4.01-34.07-.46-5.03,3.78-11.22,6.78-16l7.32,20.26c2.28,6.32,3.82,12.02,4.66,18.98l-6.87-4.61,3.63,50.82,6.15,79.07h0Z"/>
  <path class="st0" d="M1022.32,345.49c-.38-3.22.15-6.52.96-10.46l72.61-25.43,46.35-16.13c-.07,4.14-.51,6.98-1.62,11l-118.29,41.03h-.01Z"/>
  <path class="st0" d="M1148.91,330l-44.81,15.52c-.06-3.78.56-7.83,2.22-10.83l118.94-40.94c0,4.18-.42,6.89-1.34,10.17l-75.01,26.08h0Z"/>
  <path class="st0" d="M1181.89,340.93l1.54-9.94,21.94-7.76,100.9-35.21c.75,3.05.48,7.08-.98,10.2l-123.39,42.7Z"/>
  <path class="st0" d="M34.04,384.04c10.74,3.32,12.08-14.69,15.71-19.1,3.67,11.15,1.48,23.08-4.59,32.56-3.52,5.5-10.68,9.32-16.69,6.59-19.99-9.12-11.07-40.18-5.33-56.03l12.65-34.84c8.16,11.46-23.13,64.25-1.74,70.83h-.01Z"/>
  <polygon class="st0" points="1020.04 310.65 898.57 353.23 901.15 342.51 1021.64 300.83 1020.04 310.65"/>
  <path class="st0" d="M29.01,533.41c-1.09-2.72-.47-6.4.41-10.06l53.04-18.31,68.46-23.73c0,3.24-.42,6.65-1.28,9.88l-120.62,42.22h0Z"/>
  <path class="st0" d="M77.59,499.49l-49.29,17.18c.21-3.71.75-6.61,1.89-10.33l120.52-41.62c.42,3.17-.02,6.3-1.18,9.56l-71.94,25.21Z"/>
  <path class="st0" d="M96.45,279.07c-21.87,11.57-32.98,11.19-58.33,12.02,6.03-4.05,11.61-5.63,17.98-7.61,13.04-4.06,25.71-8.32,38.17-13.8,17.06-7.5,7.21-16.47,25.7-25.17,2.99-1.41,6.92-2.19,10.09-.8,7.18,3.15,4.05,15.28,1.35,21.34-2.04,4.55-7.59,5.11-11.45,2.75l-10.15-6.21c-2.17,7.64-5.78,13.47-13.37,17.49h.01Z"/>
  <path class="st0" d="M737.05,259.54c-6.79,25.9-45.41,28.65-69.44,28.15,14.49-10.83,57.72-13.39,65.42-31.27,4.97-11.53,21.28-21.95,26.83-11.87,3.4,6.18.81,18.73-6.04,21.82-5.95,2.68-11.72-3.24-16.76-6.85h-.01Z"/>
  <path class="st0" d="M401.97,64.52c.27-3.93.95-6.93,2.15-10.25l113.3-38.97c.29,2.91-.57,7.36-2.15,10.09l-113.3,39.13h0Z"/>
  <path class="st0" d="M208.39,509.46c20.8-8.75,44.89-9.89,68.72-14.96,12.25-2.6,23.28-9.38,29.66-20.21-3.73-2.24-7.7-4.18-9.91-7.02-2.72-3.53,1.02-10.72,5.3-10.07,7.03,1.06,11.04,7.87,13.17,13.79l3.22,8.93,4.99-24.49c.25-1.17,2.61-3.43,3.67-3.97,3.14-1.64,9.56,3.39,9.56,7.35,0,2.04-2.02,6.4-3.38,5.96l-4.93-2.67c-1.18-.64-3.87,2.62-4.04,4.01l-2.43,20.82c-.45,3.85-1.35,7-5.4,8.93l-6.14-18.41c-4.1,6.65-8.94,12.02-16.33,15.32-25.55,11.4-57.41,13.82-85.75,16.73l.03-.03Z"/>
  <path class="st0" d="M592.55,63.42c-1.23-2.85-.09-6.88,1.47-10l59.7-20.6,49.47-17.37c.52,3.7-.1,6.97-1.93,10.29l-108.71,37.69h0Z"/>
  <path class="st0" d="M307.46,96.42c3.74-3.67,7.98-5.67,12.49-7.87,19.53-9.53,41.52-24.76,52.46-43.54l-8.34-5.78c-3.19-2.22-2.34-10.37,2.33-11.44,7.89-1.81,14.79,14.38,16.89,22.18,1.75-6.5,1.6-24.88,9.28-27.93,2.71-1.08,8.42,4.5,8.05,8.07-.16,1.5-2.04,4.68-2.61,4.97-2.87-1.72-4.69-2.75-7.51-3.56-3.88,10.57-1.86,27.99-7.9,34.02-3.52,3.52-3.94-15.26-7.77-18.24-8.19,27.88-40.3,44.17-67.39,49.12h.03Z"/>
  <path class="st0" d="M243.3,60.98c-.02-3.86.66-7.1,2.03-10.24l102.46-36.55c.3,3.49-.4,6.83-1.69,10.44l-102.81,36.35Z"/>
  <path class="st0" d="M697.92,522.12c-4.74,18.62-53.47,30.15-69.24,27.56,3.57-3.81,7.9-4.81,12.35-6.06,13.2-3.71,26.17-7.31,38.67-12.64,7.1-3.03,12.54-7.78,15.12-15.02,2.27-6.39,13.09-12.43,16.71-12.84,2.78-.31,8.48,1.45,9.39,4.71,1.8,6.5-.3,17.42-6.13,20.9-6.16,2.62-12.69-3.72-16.87-6.63h0Z"/>
  <path class="st0" d="M459.9,198.98c-7.77,1.59-15.36.02-22.95-1.83,8.47-7.02,25.01-3.52,34.37-13.9l-13.23-1.15c-4.35-.38-7.91-3.51-7.14-8.4,2.08-13.26,11.92-32.34,26.86-36.23-2.2,9.54-3.72,18.02-13.12,20.15-3.11.7-6.46,5.05-4.02,7.23l16.66,1.32c7.93.63,1.26,28.99-17.44,32.81h.01Z"/>
  <polygon class="st0" points="908.72 545.14 890.23 533.65 899.64 514.46 919.63 525.14 928.56 508.12 947.27 519.57 938.29 540.1 918.24 528.35 908.72 545.14"/>
  <path class="st0" d="M1191.62,181.23c-8.76,3.29-17.81,1.15-26.51-1.13,10.86-6.54,25.34-3.96,34.18-13.37l-12.58-1.24c-19.66-1.93,5.53-44.59,19.5-44.09-4.72,23.34-14.35,17.1-18.74,24.89-.39.69,2.07,2.31,2.96,2.31l11.71.04c3.51.01,7.46,1.27,7.12,5.78-.76,10.38-6.72,22.67-17.63,26.78h-.01Z"/>
  <path class="st0" d="M883.6,401.5l30.6-14.7c-9.72-3.94-17.96-1.4-28.37-1.26,2.4-6.01,5.95-12.59,10.24-17.88,11.82-2.3,23.91-1.43,35.54,3.49-10.33,23.77-20.74,35.59-48,30.35h-.01Z"/>
  <path class="st0" d="M927.79,109.19l-96.59,33.64c.11-3.73.94-7.09,2.66-10.63l95.59-33.67c.45,3.84-.12,6.87-1.66,10.66Z"/>
  <path class="st0" d="M1265.12,24.64l-98.17,34.23c-.7-2.97-.18-6.24,1.24-9.88l98.33-34.36c.27,3.94-.2,6.2-1.4,10.01Z"/>
  <path class="st0" d="M1367.92,21.85l-95.08,33.98c-.02-4.13.61-7.12,1.89-10.62l94.29-33.48c.63,3.11.07,6.58-1.09,10.11h0Z"/>
  <path class="st0" d="M570.59,349.18c-8.13,10.21-22.9,9.29-35.7,9.04l32.04-15.06c-10.06-5.5-19.25-1.4-30.1-1l10.59-18.86c2.55-.79,38.41-1.19,35.39,5.57-3.18,7.11-7.54,14.39-12.24,20.3h.01Z"/>
  <path class="st0" d="M729.73,550.76c7.96-3.54,16.33-5.58,25.2-7.18l34.88-6.27c22.01-3.96,33.48-18.52,30.49-20.12l-3.42-1.83c-2.92-1.57-5.63-4.19-5.73-7.27-.09-2.66,3.47-7.92,6.75-6.71,9.46,3.47,11.52,13.27,14.32,22.12,2.85-7.01,1.85-31.59,12.54-26.71,1.88.86,4.9,3.88,4.66,6.39-.21,2.04-2.67,6.21-3.64,6.35l-3.63-3.27c-.77-.69-3.51,1.86-3.72,2.92-2.3,11.34-.88,25.45-7.7,29.7l-5.87-17.56c-7.62,12.05-22.58,17.88-36.04,20.81-19.61,4.26-38.76,6.78-59.08,8.65h-.01Z"/>
  <path class="st0" d="M211.83,332.26c-14.08,26.31-17.36,31.47-48.3,30.45,10.98-6.26,21.37-9.14,31.27-16.04-10.76-2.1-19.13-1.42-29.74-.42l10.68-18.42c9.22-.66,27.51-1.83,36.09,4.44h0Z"/>
  <path class="st0" d="M195.24,157.54l26.38-12.07c1.45-.66,3.08-2.19,4.47-3.78-10.13-1.72-18.71-.78-28.74.03,3.11-7.2,6.56-12.78,11.24-18.43,7.96-.25,28.47-.95,33.41,3.37,2.72,2.38-9.39,22.48-17.18,27.28-8.44,5.19-18.69,5.2-29.58,3.59h0Z"/>
  <path class="st0" d="M1115.16,520.6c8.8-4.13,18.12-6.51,28.26-8.21l33.47-5.6c12.6-2.11,23.83-8.57,31-19.09l-6.35-4.42c-2.27-1.57-4.04-4.78-3.51-7.1.64-2.75,4.02-6.84,6.97-5.34,10.43,5.35,10.55,13.79,14.5,22.43,1.7-9.25,1.54-18.21,6.18-26.04,1.8-3.04,7.36-.1,8.96,1.8,2.03,2.4.9,7.66-1.19,9.38-2.26-1.19-4.79-2.44-7.36-2.68-4.41,8.47-.65,29.16-9,31.91l-5.6-17.31c-6.7,10.47-17.19,16.42-29.29,19.55-16.67,4.31-33.31,6.79-50.46,8.8l-16.56,1.94h-.02Z"/>
  <path class="st0" d="M287.17,280.51c-24.56,9.31-51.93,11.98-78.9,15.19,2.24-1.55,5.33-3.2,7.83-3.81,17.31-4.18,34.1-6.92,51.7-9.66,13.4-2.08,26.01-7.71,32.73-20.16-4.89-2.12-9.65-3.82-9.6-9.11.02-2.08,1.84-5.73,3.45-6.46,7.52-3.47,15.22,14.1,17.3,21.51l2.87-17.42c.47-2.86,2.04-6.97,4.36-8.95,2.19-1.86,6.41.52,7.74,2.23,2.11,2.71,1.64,6.65-.66,9.56l-6.17-3.25c-.75.77-2.6,3.76-2.79,5.21l-2.51,19.7c-.4,3.11-1.76,5.76-4.66,8.22l-6.17-17.49c-4.2,6.94-9.03,11.87-16.51,14.7v-.02h0Z"/>
  <path class="st0" d="M1101.35,39.88c-6.5,2.62-13.74-.29-14.88-7.22-.58-3.49,3.44-9.47,6.51-11.62,8.12,1.84,14.38,8.99,17.35,16.63l5.3,13.62c2.11-8.47,3.7-33.21,11.91-35.67,4.61-1.38,8.13,2.79,9.52,5.95,1.65,3.73.74,7.98-2.02,11.23l-4.14-3.51c-.92-.77-3.78-1.29-4.81-.77s-2.59,2.76-2.76,3.92l-3.45,25.39c-.73,5.38-1.82,10.21-6.8,15.08l-11.74-33.03h.01Z"/>
  <path class="st0" d="M983.02,285.73c12.88-5.36,25.42-6.81,38.51-9.04l21.98-3.73c11.43-1.94,23.02-7.47,30.01-16.32,5.41-6.87-7.01-4.44-7.95-12.01-.36-2.92.76-7.28,4.21-7.99,7.93-1.63,14.59,14.53,16.73,22.09l3.92-20.98c.32-1.74,3.08-5.33,4.67-5.79,2.26-.66,5.94,1.82,6.9,3.54,1.22,2.18.55,7.28-1.35,8.32-16.05-11.31-4.78,26.8-16.73,29.71l-5.14-17.57c-4.16,8.61-11.3,13.49-20.3,16.69-17.21,6.14-35.01,9.18-53.27,11.2-7.43,1.04-14.24,2.5-22.17,1.89h-.02Z"/>
  <path class="st0" d="M687.9,127.7l-92.43,32.49c.68-4.86,1.24-6.9,2.46-10.62l92.14-32.02c1.05,2.36,1.27,8.93-2.17,10.14h0Z"/>
  <path class="st0" d="M1188.07,447.37c-6.27,17.17-52.58,26.99-68.58,28.34,2.38-3.99,6.41-4.93,10.26-6.07,13.41-3.97,26.55-7.65,39.44-12.87,7.36-2.98,13.28-8.04,16.15-15.17,2.87-7.13,13.68-13.71,19.5-13.43,2.62.12,7.23,3.26,7.66,6.65.66,5.26-1.31,11.02-3.51,15.7-1.91,4.06-6.21,5.49-10.1,3.2l-10.84-6.34h.01Z"/>
  <path class="st0" d="M536.37,540.46l-17.44-9.61,8.73-18.84,18.51,10.8,8.43-15.86,18.09,10.15c-2.41,6.83-5.02,12.41-8.84,19.32l-17.76-10.84c-3.43,4.54-5.57,7.98-9.71,14.89h0Z"/>
  <path class="st0" d="M895.46,164.42c-4.91,1.03-8.52.63-11.21-1.99-4.33-4.22-3.17-8.65-.23-13.32,1.15-1.82,4.54-3.59,6.82-2.36,13.03,7.11,13.22,16.2,18.42,28.28,2.2-8.63,3.91-41.75,17.15-32.89,5.41,3.63,6.35,10.02,2.42,14.78l-6.39-4.09c-8.9-5.7-6.14,41.65-15.61,43.08-3.34-10.87-5.89-21.4-11.38-31.5Z"/>
  <path class="st0" d="M213.34,272.73c-5.82-2.77-11.81-6.22-17.62-10.32l9.31-18.07,18.01,10.69,8.76-15.82,17.36,10.38c-2.87,7.25-5.19,12.34-8.81,19.17l-18.03-11.09-9,15.05h.01Z"/>
  <path class="st0" d="M124.63,35.64c-13.24,17.1-24.83,22.04-46.09,28.95,4.69-5.2,9.73-7.94,15.26-11.33,9.59-5.87,18.82-12.17,26.23-21.15-3.8-3-8.19-5.53-9.32-9.14-2.38-7.61,2.74-13.93,8.89-17.31,3.7-2.03,9.49-4.07,12.59,0,6.65,8.7-6.34,19.34,4.1,22.89l-4.53,10.84-7.13-3.72h.01ZM125.47,21.47c.87-1.27.44-5.43-.73-6.71-1.26-1.37-6.22-.5-6.52,1.41,1.52,2.11,3.87,3.59,7.25,5.3h0Z"/>
  <path class="st0" d="M380.77,109.92l-67.68,23.66c-.58-3.16-.04-7.07,1.73-9.94l73.04-26.04c4.33-1.54,7.57-2.52,12.37-3.68l-2.21,10.06-17.25,5.96h0Z"/>
  <path class="st0" d="M959.92,280.47l16.83-7.81c-6.85,12.2-27.57,22.55-39.79,15.65-3.43-1.93-2.44-9.02-.07-11.54,5.59-5.92,11.99-10.4,18.53-14.35l-4.61-3.43c-2.26-1.67,1.74-6.79.88-13.64-.3-2.41.41-7.89,3.78-7.47,6.25.78,12.76,4.81,16.6,9.71,3.53,4.5,2.9,11.84-.11,16.28-21.85.87-2.18-.86-30.34,14.56-1.35.74-3.08,4.69-1.71,5.06,6.91,1.81,13.35-.56,19.98-3h.01ZM961.02,252.32c0-1.65-1.34-3-3-3s-3,1.34-3,3,1.34,3,3,3,3-1.34,3-3ZM970.75,257.27c-.2-3.52-2.52-6.03-5.7-6.69-.69.68-.4,4.43.56,5.77.81,1.14,3.81,1.59,5.15.92h0Z"/>
  <path class="st0" d="M581.89,520.22c-.11-4.8,1.12-8,3.14-11.3l79.84-28.22c.11,3.7-.3,7.16-1.42,10.38l-81.56,29.14h0Z"/>
  <path class="st0" d="M78.75,21.57L.35,49.79c-.93-3.38,0-7.95,2.32-10.76L80.86,11.01c-.19,3.91-.93,7.19-2.11,10.56Z"/>
  <path class="st0" d="M1019.3,107.66c-12.75,16.51-22.96,21.34-43.75,27.73l26.65-19.87c4.54-3.39,8.94-6.85,12.98-10.64-3.42-3.04-6.74-5.16-8.41-7.9-4.09-6.78.84-13.57,6.21-17.56,4-2.96,10.25-4.84,13.44-.29,3.91,5.56-.87,12.57.21,18.21.46,2.38,3.76,5.19,1.7,8.37-1.02,1.57-2.2,3.95-3.45,4.26s-3.88-1.34-5.59-2.33v.02h.01ZM1019.66,94.2c1.21-.65.63-5.29-.61-6.66-1.05-1.17-5.93-.39-5.62,1.13.44,2.14,3.46,4.3,6.22,5.54h.01Z"/>
  <path class="st0" d="M1373.44,332.39l-77.58,27.71c.22-4.01.71-6.89,1.72-10.55l77.89-27.69c-.17,3.58-.75,6.77-2.03,10.52h0Z"/>
  <path class="st0" d="M809.4,283.61c-7.77,13.12-31.82,28.27-47.9,30.53l35.75-25.04c3.17-2.22,5.86-5.68,8.02-8.44l-7.32-6.39c-3.28-5.1-.92-11.14,2.39-15.1s9.79-7.54,15.17-4.35c8.1,4.8-5.36,19.65,4.62,21.85l-4.4,9.5-6.33-2.56h.01ZM809.95,270.33c1.03-2.88.87-5.84-.57-6.12-1.72-.33-4.23.12-6.17,1.09,2.37,2.44,4.54,4.07,6.74,5.02h0Z"/>
  <path class="st0" d="M476.5,481.4c-4.91,8.02-10.54,14.59-17.67,19.85-4.99,3.68-11.98,3.28-18.03,3.15-5.54-.11-10.16-3.59-9.53-9.5,1.14-10.72,7.57-19.48,15.86-27.12-6.01-2.65-12.72-1.78-17.37,3.23-1.53-5.96,1.8-12.37,7.76-13.24,6.35-.93,12.27.16,19.13,1.98-1.13,5.37-3.46,9.27-7.01,13.33l-11.35,12.98c-.81.93-1.33,3.95-.89,4.99,2.71,6.51,22.41,2.63,28.84-2.65l10.26-7h.01Z"/>
  <path class="st0" d="M1049.31,95.06c-.13,4.66,1.03,8.15,5.16,8.96,2.58.5,7.35-1.05,8.71-4.61,3.42-8.98-5.6-19.47,2.5-23.57l3.33,17.91c.41,2.22,2.57,5.35,4.28,6.2s6.42,1.05,7.35-.58c2.99-5.24-11.13-13.73-.79-24.39l5.37,14.96c2.72,7.58-.49,17.84-8.51,20.85-3.91,1.47-8.48-2.22-11.32-4.83-2.3,3.93-5.86,8.17-10.25,8.25-4.61.08-9.34-3.65-10.53-8.64-1.14-4.81-.36-10.33-.45-15.5-.08-4.66-1.14-9.28,5.64-11.77l-.49,16.78v-.02h.01Z"/>
  <path class="st0" d="M795.41,41.94c-15.44,19.25-26.88,22.77-48.78,33.62.23-3.01,2.13-4.29,4.48-5.66,14.58-8.51,28.41-18.05,39.6-31.01-4.73-3.23-9.24-6.87-8.91-12.15.59-9.17,12.6-16.39,17.16-14.4,6.7,2.94,3.38,13.12,2.55,19.39-.17,1.22,3.36,3.19,2.96,4.28l-1.8,4.83c-.36.96-1.98,3.71-2.85,3.27l-4.4-2.19h0ZM795.16,29.02c1.11-.86.86-4.44-.26-5.92s-4.61-1.22-5.86.93l6.11,4.98h.01Z"/>
  <polygon class="st0" points="185.11 481.4 169.74 472.2 177.07 455.68 194.25 463.95 202.01 450.05 217.9 459.75 210.6 476.97 193.92 467.48 185.11 481.4"/>
  <path class="st0" d="M103.22,338.22c-1.53-4.96-3.45-9.59-6.06-14.33-5.92,2.56-10.07.08-12.11-4.18s.8-11.93,6.11-11.48c6.45.57,11.26,7.16,13.41,12.72l5.37,13.92c2.23-8.69,2.76-28.77,9.59-32.17,4.16-2.08,10.26,3.65,10.55,7.67.17,2.27-1.75,6.17-3.42,7.13-16.63-17.11-7.33,30.14-18.99,35.04l-4.43-14.33h-.01Z"/>
  <path class="st0" d="M153.56,139.47c-5.48-9.84-4.84-18.71-11.82-28.48-4.26.97-7.43.79-9.76-1.95s-2.8-6.13-1.09-9.76c.74-1.57,3.38-4.13,4.96-4.31,9.01-1.03,16.54,17.79,18.97,25.83,2.02-8.17,3.15-29.77,11.21-31.93,1.62-.44,4.86,1.28,6.24,2.65,3.78,3.74,3.04,10.85-1.27,12.43-14.67-16.68-7.3,29.44-17.42,35.53h-.01Z"/>
  <path class="st0" d="M263.06,323.83c-7.16,2.29-11.92-.3-13.49-5.45-1.24-4.06,2.46-12.21,7.78-10.44,4.74,1.59,9.41,6.62,11.25,11.01l6.61,15.7c1.55-10.2,2.42-20.15,5.96-29.2,1.76-4.51,7.22-3.56,9.92-1.73,3.65,2.48,4.19,5.98,2.05,10.24l-1.42,2.84c-.86,1.72-3.05-4.28-7.51-3.35-1.23.26-2.72,2.84-2.88,4.13l-2.96,25.3c-.42,3.62-2.75,7.57-5.75,9.47l-9.61-28.51h.03,0Z"/>
  <path class="st0" d="M366.78,271.76c-3.72,2.87-12.19,10.25-8.57,15.32,5.63,7.9,27.37-.7,36.26-9.63-.95,5.03-4.77,8.77-8.56,12.44-6.75,6.51-15.89,10.11-25.35,7.42-6.18-1.75-8.95-8.54-7.29-14.76s5.36-11.17,9.58-16.08c-4.55-.83-9.72-2.91-8.91-7.99,1.33-8.21,12.12-18.16,16.22-12.69,1.35,1.8,1.59,7.09-.42,7.08-1.08,0-12.79-.69-10.83,3.01.41.78,1.69,2,2.58,2.39l6.94,3.04c4.67.3,7.97-4.88,11.4-8.06,1.98,7.56-7.23,14.02-13.04,18.51h0Z"/>
  <path class="st0" d="M1078.75,450.89c3.92,12.48-24.87,22.24-22.58,33.54,1.18,5.86,16.04,6.92,28.4-1.8l8.71-6.14c-5.44,14.91-27.88,26.66-38.49,17.09-7.86-7.08-1.21-19.26,5.05-26.04l-6.55-6.04c-1.71-7.87,4.76-17.79,13.82-17.72,3.68.03,3.07,8.38.73,9.19-3.37-.84-7.12-3.49-10.57,1.44l9.53,7.45c4.71-3.42,7.98-6.62,11.96-10.96h.01Z"/>
  <path class="st0" d="M635.79,90.28c-3.8.42-7.04.7-8.92-.39-1.66-.97-4.26-4.49-4.14-6.45.19-3.17,2.52-7.29,4.76-8.81,6.63.13,12.1,5.78,14.52,11.62l5.94,14.28c2.02-7.6,2.32-30.76,11.1-31.2,2.37-.12,5.34,2.01,6.78,4.22,2.23,3.42,1.61,8.83-1.7,9.88-1.71-1.16-4.54-2.98-6.08-2.99s-3.52,3.49-3.75,5.11l-3.44,24.81c-.41,2.97-2.71,6.16-5.64,6.72-2.87-9.43-5.31-18.5-9.43-26.79h.01Z"/>
  <path class="st0" d="M692.21,391.75c1.75,20.61,11.81,44.57,4.7,65.84-1.6-12.2-2.02-24.37-4.81-36.49-1.98-8.56-4.03-16.33-4.79-25.34-.35-4.13,1.88-8.5,3.03-12.44,1.38-4.72,1.21-10.61,5.82-13.55,3.72-2.38,8.14.2,11.45,2.69,4.3,3.24,7.42,12.07,2.05,15.15-5.21.61-13.64-1.78-17.44,4.14h-.01Z"/>
  <path class="st0" d="M973.52,383.66c-.9-3.16-3.27-7.6-4.92-9.88-4.22.65-7.22.81-9.49-1.21-3.29-2.95-3.75-6.69-1.67-10.73.68-1.33,2.96-3.44,4.36-3.65,8.71-1.36,17.17,17.73,18.94,25.77l4.33-22.22c.42-2.15,2.55-6.35,4.34-7.59,3.44-2.38,8.31-.06,9.96,3.52,1.17,2.51.4,8.4-2.36,9.21l-5.35-3.18c-1.17-.69-3.9,2.96-4.11,4.34l-3.33,21.96c-.69,4.59-1,8.52-5.66,11.23l-5.05-17.57h-.01Z"/>
  <path class="st0" d="M43.64,91.7c1.85,21.5,11.36,41.46,5,65.91-1.46-10.95-2.23-21.24-4.47-31.72l-5.28-24.77c-1.38-6.49.65-12.3,2.94-18.22,1.57-4.05.5-11.19,5.93-13.17,6.95-2.55,15.91,4.76,15.79,12.18-.21,12.57-12.49-1.94-19.89,9.8h-.01Z"/>
  <path class="st0" d="M557.15,82.49c2.43,6.16,1.98,19.98-5.86,21.01-5.85.77-9.86-5.07-9.88-10.47-.12-32.56,18.05-38.24-4.11-64.28-1.09-2.88,1.41-8.36,3.55-11.03,11.69,11.3,14.3,27.73,10.18,43.02-2.13,7.91-4.25,15.48-5.16,23.56-.42,3.75,2.39,9.21,5.96,8.31,4.52-1.15,3.14-5.86,5.33-10.11h-.01Z"/>
  <path class="st0" d="M393.94,473.42c3.85,8.33-3.42,31.38-14.09,26.83-13.06-5.57-8.56-26.89-4.77-36.9l9.25-24.41c5.18,7.56-14.98,45.34-.9,47.07,2.63.32,5.58-1.8,6.33-4.47,1.17-3.01,1.81-4.68,4.19-8.12h-.01Z"/>
  <path class="st0" d="M735.71,84.71l3.7-10.56c5.38,8.38-.28,28.66-10.9,27.85-10.62-.8-13.07-17.14-9.3-28.18l11.6-33.88c3.14,5.43.25,10.47-1.18,15.44-1.91,6.68-9.48,29.72-.16,32.21,1.63.44,5.64-1.16,6.24-2.88h0Z"/>
  <path class="st0" d="M443.51,117.63c2.62,7.04,1.15,14.93-2.57,21.49-2.56,4.51-7.96,7.22-12.75,4.49-13.99-7.96-3.81-35.01.55-46.5,1.7-4.49,2.62-8.67,5.67-13.32,5,6.97-15.32,41.84-1.47,46.76,1.64.58,5.38-1.13,6.08-2.74l4.5-10.19h-.01Z"/>
  <path class="st0" d="M994.51,62.13c3.77,9.87.65,26.77-9.66,27.47-3.39.23-7.3-2.27-9.33-5.39-3.97-6.08-3.46-13.46-1.71-20.64,2.94-11.99,6.92-23.56,12.21-35.29,3.74,12.29-9.71,25.68-5.77,42.41.47,2.02,3.14,4.68,4.8,4.98,2.3.42,5.41-1.82,6.22-4.12l3.25-9.42h-.01Z"/>
  <path class="st0" d="M863.43,264.9l4.53-11.06c3.47,8.1.61,27.04-10.23,27.57-11.16.56-14.01-16.01-10.62-27.38,3.39-11.38,7.47-22.42,11.84-34.28,6.1,6.84-14.99,41.2-1.89,47.3,1.46.68,5.72-.63,6.34-2.15h.01Z"/>
  <path class="st0" d="M175.49,266.2c3.59,7.33.44,25.55-10.26,26.67-7.67.8-13.73-11-11.32-23.13,2.66-13.34,7.22-25.74,12.83-38.41,1.63,7.84-1.55,14.26-3.45,21.21-1.66,6.08-6.4,24.35,2.42,26.1,1.64.32,5.02-1.55,5.74-3.2l4.04-9.24h0Z"/>
  <path class="st0" d="M845.25,405.52l4.16-10.19c3.54,5.67.35,23.97-9.49,23.8-2.44-.04-6.22-2.47-7.5-5.25-5.86-12.73,3.71-31.67,9.12-45.82,4.16,7.41-11.22,31.08-2.22,38.44,1.04.85,5.35.41,5.92-.99h.01Z"/>
  <polygon class="st0" points="1257.4 437.97 1240.51 429.64 1248.07 412.09 1264.98 420.68 1257.4 437.97"/>
  <polygon class="st0" points="994.87 529.71 977.42 521.73 985.86 504.28 1002.22 512.41 994.87 529.71"/>
  <path class="st0" d="M614.81,322.39l-15.83-8.43c2.21-6.16,4.41-10.93,7.7-17.04l16.4,8.23-8.27,17.24h0Z"/>
  <path class="st0" d="M1059.92,62.58c2.97-32.46-24.94-30.63-14.08-49.31,16.15,14.02,21.95,34.77,15.7,55.05-1.19-.71-1.84-3.29-1.62-5.74Z"/>
  <polygon class="st0" points="486.75 357.62 470 349.45 477.65 332.55 494.17 340.19 486.75 357.62"/>
  <polygon class="st0" points="874.1 442.8 857.52 434.64 865.8 417.69 881.86 426.18 874.1 442.8"/>
  <polygon class="st0" points="624.61 262.3 608.14 254.29 615.54 237.8 631.47 245.1 624.61 262.3"/>
  <polygon class="st0" points="1357.18 267.71 1341.13 258.94 1349.1 243.1 1364.76 250.69 1357.18 267.71"/>
</svg>