<?xml version="1.0" encoding="UTF-8"?>
<svg id="Layer_1" data-name="Layer 1" xmlns="http://www.w3.org/2000/svg" viewBox="0 0 1366 470.93">
  <g>
    <path d="M1294.33,383.64c-14.11-9.69-42.7-8.48-49.48,14.62.3,0,9.92-6,2.16-1.75,2.88-2.12-3.3.99-.58.47,3-.57,9.28-2.06,12.31-2.3,2.02-.16,4.14-.74,6.15-.5.45-.1.91-.16,1.35-.19.87-.08,1.77-.12,2.63-.02.01,0,.02,0,.03.01,2.53-.17,5.06-.1,7.4.66.01,0,.01.01.03.02.47.04.93.13,1.34.34.48.26.7.8.6,1.38.04,0,.07,0,.11,0-.04.05-.09.1-.13.15,0,.02,0,.04-.01.07-.1.32-.35.56-.63.68-8.64,7.33-23.54,26.01-27.96,43.56l19.06-19.49c3.98-6.51,11.72-17.64,20.21-24.11,5.2-3.97,9.65-10.7,5.41-13.61Z"/>
    <path d="M1333.32,436.12c-17.13,6.47-27.2,11.39-53.68,11.53-5.96.03-15.93-4.55-18-9.7-1.7-4.22,3.3-12.85,7.68-18.1-1.69-.1-3.38-.17-5.07-.22-1.47-.04-2.94-.03-4.41-.03-2.51,3.63-4.85,7.37-6.84,11.26-11.24,22.01-3.6,37.04,20.34,37.5,35.56.69,62.72-18.42,85.93-45.17-8.63,4.41-17.09,9.56-25.96,12.91Z"/>
  </g>
  <path d="M1052.01,402.86c-7.77-4.44-9.5-8.44-6.03-15.26.35-.69.68-1.38,1.02-2.07-3.05,1.52-6.11,3.01-9.19,4.47-1.74.82-3.49,1.61-5.23,2.41-3.89,5.96-8.08,11.84-10.88,18.04-5.54,12.29-11.7,24.72-13.75,37.42-1.86,11.53,10.34,17.27,27.27,15.03,15.22-2.02,26.26-7.66,31.28-18.04,7.7-15.9,5.73-30.45-14.49-42ZM1036.26,443.89c-3.91,1.18-14.8-1.57-14.88-2.11-1.34-8.71,1.03-18.53,9-30.04,15.17,4.26,29.37,19.9,34.25,25.84-1.1-.99-12.62,8.38-28.37,6.31Z"/>
  <path d="M95.63,124.9c-7.77-4.44-9.5-8.44-6.03-15.26.35-.69.68-1.38,1.02-2.07-3.05,1.52-6.11,3.01-9.19,4.47-1.74.82-3.49,1.61-5.23,2.41-3.89,5.96-8.08,11.84-10.88,18.04-5.54,12.29-11.7,24.72-13.75,37.42-1.86,11.53,10.34,17.27,27.27,15.03,15.22-2.02,26.26-7.66,31.28-18.04,7.7-15.9,5.73-30.45-14.49-42ZM79.88,165.93c-3.91,1.18-14.8-1.57-14.88-2.11-1.34-8.71,1.03-18.53,9-30.04,15.17,4.26,29.37,19.9,34.25,25.84-1.1-.99-12.62,8.38-28.37,6.31Z"/>
  <path d="M1009.99,288.2c-2.18-2.62-4.63-5.02-6.98-7.51-2.21-2.34-2.37-4.83-1.63-8.02,1.94-8.45,3.33-17.03,4.32-22.25-.78-7.32-2.53-12.86-5.11-17.45.54,6.1.02,12.22-1.19,18.22.02.2.03.4.04.6.04.92-.04,1.82-.22,2.69-.09,1.38-.37,2.73-.81,3.98-.07,2.02-.49,4.13-1.34,6.34-1.72,4.45-2.9,9.18-3.72,13.89-.93,5.29-2.05,10.83,1.99,15.57,3.52,4.13,6.99,8.3,10.67,12.28.31.33,2.8-.44,2.96-1.04,1.14-4.38,2.12-8.83,2.73-13.32.17-1.24-.8-2.9-1.7-3.99Z"/>
  <path d="M882.96,309.49c-2.18-2.62-4.63-5.02-6.98-7.51-2.21-2.34-2.37-4.83-1.63-8.02,1.94-8.45,3.33-17.03,4.32-22.25-.78-7.32-2.53-12.86-5.11-17.45.54,6.1.02,12.22-1.19,18.22.02.2.03.4.04.6.04.92-.04,1.82-.22,2.69-.09,1.38-.37,2.73-.81,3.98-.07,2.02-.49,4.13-1.34,6.34-1.72,4.45-2.9,9.18-3.72,13.89-.93,5.29-2.05,10.83,1.99,15.57,3.52,4.13,6.99,8.3,10.67,12.28.31.33,2.8-.44,2.96-1.04,1.14-4.38,2.12-8.83,2.73-13.32.17-1.24-.8-2.9-1.7-3.99Z"/>
  <path d="M1072.53,97.06c-2.18-2.62-4.63-5.02-6.98-7.51-2.21-2.34-2.37-4.83-1.63-8.02,1.94-8.45,3.33-17.03,4.32-22.25-.78-7.32-2.53-12.86-5.11-17.45.54,6.1.02,12.22-1.19,18.22.02.2.03.4.04.6.04.92-.04,1.82-.22,2.69-.09,1.38-.37,2.73-.81,3.98-.07,2.02-.49,4.13-1.34,6.34-1.72,4.45-2.9,9.18-3.72,13.89-.93,5.29-2.05,10.83,1.99,15.57,3.52,4.13,6.99,8.3,10.67,12.28.31.33,2.8-.44,2.96-1.04,1.14-4.38,2.12-8.83,2.73-13.32.17-1.24-.8-2.9-1.7-3.99Z"/>
  <path d="M1120.19,102.94c-.45,3.42-.41,7-1.43,10.25-6.02,19.16-13.27,38-18.1,57.45-2.85,11.49-3.28,23.98-2.54,35.88,1.32,21.11,18.77,34.92,45.67,38.33,27.76,3.52,53.17-5.56,76.86-17.47,38.19-19.2,75.06-41.02,105.39-72.03,3.67-3.75,7.13-7.75,10.31-11.94,4.73-6.24,3.42-12.1-3.27-15.47-4.79-2.41-10.59-4.28-15.83-4.04-11.09.5-22.27,1.81-33.13,4.12-16.75,3.57-35.99-3.34-32.18-26.78,2.64-16.29,6.16-32.89,12.48-48.02,7.31-17.48,20.47-21.67,37.41-13.51,28.65,13.8,49.26,37.78,51.33,68.26,2.05,30.15-3.94,61.49-28.68,85.32-24.76,23.84-52.32,43.46-81.41,61.38-21.37,13.16-44.28,22.71-68.85,26.59-30.12,4.76-66.32-6.66-78.83-34.52-7.02-15.61-7.63-32.36-6.21-49.26,2.47-29.37,13.29-56.55,21.85-84.33.9-2.91,2.69-5.56,4.23-8.24.57-.99,1.61-1.7,2.44-2.53.83.18,1.66.37,2.49.55ZM1313.63,89.95c.41-1.55-.41,1.55,0,0-8.86-14.56-36.21-16.67-34.76-16.38-6.86-2.01-13.59,4.5-14.63,10.21-1.2,6.63,7.83,7.54,12.59,7.39,8.45-.27,28.36-.47,36.79-1.22Z"/>
  <path d="M171.7,90.43c-.45,3.42-.41,7-1.43,10.25-6.02,19.16-13.27,38-18.1,57.45-2.85,11.49-3.28,23.98-2.54,35.88,1.32,21.11,18.77,34.92,45.67,38.33,27.76,3.52,53.17-5.56,76.86-17.47,38.19-19.2,75.06-41.02,105.39-72.03,3.67-3.75,7.13-7.75,10.31-11.94,4.73-6.24,3.42-12.1-3.27-15.47-4.79-2.41-10.59-4.28-15.83-4.04-11.09.5-22.27,1.81-33.13,4.12-16.75,3.57-35.99-3.34-32.18-26.78,2.64-16.29,6.16-32.89,12.48-48.02,7.31-17.48,20.47-21.67,37.41-13.51,28.65,13.8,49.26,37.78,51.33,68.26,2.05,30.15-3.94,61.49-28.68,85.32-24.76,23.84-52.32,43.46-81.41,61.38-21.37,13.16-44.28,22.71-68.85,26.59-30.12,4.76-66.32-6.66-78.84-34.52-7.02-15.61-7.63-32.36-6.21-49.26,2.47-29.37,13.29-56.55,21.85-84.33.9-2.91,2.69-5.56,4.23-8.24.57-.99,1.61-1.7,2.44-2.53.83.18,1.66.37,2.49.55ZM365.13,77.43c.41-1.55-.41,1.55,0,0-8.86-14.56-36.21-16.67-34.76-16.38-6.86-2.01-13.59,4.5-14.63,10.21-1.2,6.63,7.83,7.54,12.59,7.39,8.45-.27,28.36-.47,36.79-1.22Z"/>
  <path d="M1149.94,207.12c4.62-7.41,9.08-15.01,14.14-22.18.77-1.09,4.79-1.04,6.53-.09,7.06,3.84,13.64,8.57,20.75,12.29,4.3,2.25,5.57,4.54,3.22,8.83-3.76,6.85-7.22,13.87-11.2,20.58-.8,1.35-4.01,2.81-5.01,2.25-8.22-4.57-16.3-9.43-24.14-14.62-1.77-1.17-2.47-3.96-4.28-7.06Z"/>
  <path d="M892.42,242.72c4.62-7.41,9.08-15.01,14.14-22.18.77-1.09,4.79-1.04,6.53-.09,7.06,3.84,13.64,8.57,20.75,12.29,4.3,2.25,5.57,4.54,3.22,8.83-3.76,6.85-7.22,13.87-11.2,20.58-.8,1.35-4.01,2.81-5.01,2.26-8.22-4.57-16.3-9.43-24.14-14.62-1.77-1.17-2.47-3.96-4.28-7.06Z"/>
  <path d="M936.57,242.72c4.62-7.41,9.08-15.01,14.14-22.18.77-1.09,4.79-1.04,6.53-.09,7.06,3.84,13.64,8.57,20.75,12.29,4.3,2.25,5.57,4.54,3.22,8.83-3.76,6.85-7.22,13.87-11.2,20.58-.8,1.35-4.01,2.81-5.01,2.26-8.22-4.57-16.3-9.43-24.14-14.62-1.77-1.17-2.47-3.96-4.28-7.06Z"/>
  <path d="M798.72,264.63c4.62-7.41,9.08-15.01,14.14-22.18.77-1.09,4.79-1.04,6.53-.09,7.06,3.84,13.64,8.57,20.75,12.29,4.3,2.25,5.57,4.54,3.22,8.83-3.76,6.85-7.22,13.87-11.2,20.58-.8,1.35-4.01,2.81-5.01,2.26-8.22-4.57-16.3-9.43-24.14-14.62-1.77-1.17-2.47-3.96-4.28-7.06Z"/>
  <path d="M439.49,158.53c4.62-7.41,9.08-15.01,14.14-22.18.77-1.09,4.79-1.04,6.53-.09,7.06,3.84,13.64,8.57,20.75,12.29,4.3,2.25,5.57,4.54,3.22,8.83-3.76,6.85-7.22,13.87-11.2,20.58-.8,1.35-4.01,2.81-5.01,2.26-8.22-4.57-16.3-9.43-24.14-14.62-1.77-1.17-2.47-3.96-4.28-7.06Z"/>
  <path d="M152.34,437c4.62-7.41,9.08-15.01,14.14-22.18.77-1.09,4.79-1.04,6.53-.09,7.06,3.84,13.64,8.57,20.75,12.29,4.3,2.25,5.57,4.54,3.22,8.83-3.76,6.85-7.22,13.87-11.2,20.58-.8,1.35-4.01,2.81-5.01,2.25-8.22-4.57-16.3-9.43-24.14-14.62-1.77-1.17-2.47-3.96-4.28-7.06Z"/>
  <g>
    <path d="M680.44,323.02c-6.71-1.88-13.09-4.92-18.5-7.01,21.76-14.8,29.79-57.46,22.11-74.69-.79-6.03-.41,2.39-1.77-3.53-1.96-8.59-3.44-3.88-6.52-12.13-2.79-7.48-6.06-14.86-10.3-21.65-1.77-2.83-3.75-5.66-6.02-8.18,4.08,12.74,7.73,25.67,10.96,38.79,5.88,23.9-4.25,39.19-21.41,52.64-13.78,10.8-30.32,13.86-46.98,15.39-8.99.82-12.87,4.51-13.42,12.98-.18,2.77-.98,5.51-1.15,8.28-.36,5.81-3.68,7.93-8.98,9.99-20.45,7.98-41.48,15.15-60.6,25.69-27.62,15.22-53.85,33-80.54,49.89-14.97,9.47-31.42,11.26-48.3,9.04-19.63-2.58-28.67-11.75-33.2-31.14-3.02-12.93-1.13-25.5,3.98-37.28,11.81-27.27,29.42-50.01,54.51-66.6,4-2.64,7.19-6.52,10.75-9.82-.71-.9-1.42-1.8-2.12-2.7-2.54,1.28-5.18,2.38-7.59,3.87-29.85,18.38-52.26,42.42-64.61,76.31-14.41,39.53-21.84,77.24,13.69,98.56,13.24,7.95,37.08,6.18,60.04,0,22.93-6.17,47.35-24.02,67.21-37.14,24.4-16.13,49.64-30.39,77.28-40.06,31.23-10.92,63.46-13.37,96.18-9.95,7.08.74,11.05-1.38,13.22-8.22,2.05-6.46,4.71-12.78,7.57-18.93,3.03-6.52,1.92-10.28-5.49-12.36Z"/>
    <path d="M751.97,316.97c-9.48-17.02-18.32-34.42-28.31-51.14-19.84-33.2-39.28-66.73-60.76-98.86-10.94-16.36-21.89-32.82-34.18-48.61,0,14.21.04,28.42.42,42.62,14.89,21.03,27.98,43.15,39.52,66.25,4.13,2.97,7.68,6.84,10.82,10.76,5.16,6.44,10.71,19.87,14.58,27.16,4.17,7.85,5.57,10.1,9.71,17.96,2.95,5.59,2.83,3.9,4.12,8.24.33-.95.87,2.71,1.2,1.76,3.2,6.71,17.25,32.2,32.02,58.92,7.54-5.05,15.09-10.01,23.08-14.37-6.52-10.96-11.36-19.12-12.23-20.69Z"/>
    <path d="M764.11,336.11c-.57.27-1.03.49-1.23.6-2.02,1.07-4.01,2.22-5.97,3.4-4.02,2.42-7.92,5.02-11.78,7.68-1.79,1.23-3.58,2.47-5.36,3.71,7.63,13.91,13.53,24.83,15.45,28.88,5.82-2.19,9.69-3.36,15.89-3.53,4.46-.12,9.66-5.44,14.13-5.3-1.29-2.19-10.47-17.56-21.14-35.44Z"/>
    <path d="M909.8,35.67c-12.19-3.11-26.23-3.83-38.43-1.14-37.73,8.34-75.65,16.84-112.23,29.05-39.78,13.28-78.13,30.85-117.16,46.41-5.52,2.2-9.9,5.1-13.26,8.66,0,10.7.03,21.39.2,32.09,2.42-.49,4.84-.98,7.27-1.42-.69-.51-1.36-1.03-2.07-1.53,3.36-2.85,5.88-6.1,9.19-7.61,12.05-5.52,24.16-11.02,36.61-15.51,38.92-14.04,77.62-28.94,117.17-40.96,31.58-9.6,58.66-18.24,96.53-22.86,16.75-2.04,31.21,9.26,29.18,25.54-1.48,11.85-5.06,23.5-8.39,35.04-8.58,29.7-17.55,59.29-26.3,88.94-.29,1,.09,2.2.16,3.31,3.51-3.52,3.15-7.83,4.59-11.97,5.6-16.06,9.83-31.89,16.47-47.51,7.13-16.76,8.2-28.7,16.21-45.1,15.37-31.44,15.23-65.52-15.75-73.43ZM632.78,145.71c-.98.87-2.01,1.7-3.05,2.49.52-1.18,1.18-2.36,2.38-3.43.55-.49,1.21.45.67.94Z"/>
    <path d="M1361.37,319.51c-1.68-2.12-5.66-3.18-8.71-3.3-13.28-.5-26.75.8-39.85-.89-44.21-5.72-88.37-11.97-132.4-18.97-20.23-3.22-39.41-3.41-57.5,7.59-7.92,4.82-14.16,17.62-11.31,26.18,1.04,3.12,5.02,7.27,7.87,7.44,14.89.89,30.02,6.48,44.76-1.12,1.81-.93,4.28-1.13,6.36-.93,19.85,1.96,39.69,4.08,59.53,6.16-1.05,3.26-2.12,4.35-3.42,4.85-30.34,11.67-60.89,23.32-93.48,26.1-25.47,2.17-46.5-6.9-59.92-30.73-7.06-12.53-10.61-25.22-11.57-39.51-1.48-22.02-3.54-44.01-5.51-66-7.3,3.9-14.62,7.73-22.14,11.22.85,17.33,1.85,34.63,3.7,51.85,3.25,30.18-10.46,46.88-33.2,57.92-14.68,7.13-30.28,5.91-45.33-1.07,6.49-8.65,9.83-15.66,12.19-25.75,3.31-14.14,3.66-25.87-1.85-38.5-5.37-12.32-15.08-19.57-28.48-20.97-9.21-.96-24.43,8.36-27.89,17.18-8.71,22.23-11.56,44.87-3.01,67.93.94,2.53,2.05,5.01,4.09,9.96-8.76.51-16.32,2.01-23.61,1.15-12.21-1.44-25.15-13.4-26.46-22.05-.44-2.91-2.7-5.55-4.13-8.31-3.14,2-7.65,3.26-9.18,6.12-10.2,19.01-33.46,32.33-57.04,27.35-7.27-1.53-12.73-4.37-16.43-10.56-1.08-1.8-2.14-3.6-3.21-5.41-.06.02-.13.03-.21.02-.3-.04-.59-.06-.89-.08-.04.02-.08.05-.13.06-3.48.87-7,1.52-10.52,2.18-6.27,1.17-12.58,2.3-18.73,4.02,1.81,3.82,3.64,7.64,5.45,11.47,14.74,31.23,38.92,45.2,71.27,32.47,12.31-4.85,23.1-13.57,35.54-21.11,1.47,1.68,4.13,4.6,6.65,7.62,13.53,16.24,28.59,20.75,47.84,13.15,6.78-2.68,13.3-6.78,18.92-11.46,5.45-4.54,9.45-4.61,15.4-.96,28.11,17.23,56.16,12.97,78.53-11.64,7.41-8.16,14.37-16.73,22.03-25.7,2.6,4.87,5.05,9.47,7.5,14.06,13.99,26.13,34.25,42.93,65.25,43.31,24.65.31,48.01-7.39,70.06-16.4,48.08-19.64,96.48-36.96,148.5-42.43,3.84-.4,8.4-2.79,10.85-5.73,4.92-5.9,8.88-12.67,12.66-19.41,1.34-2.39,2.37-6.8,1.12-8.37ZM950.89,343.52c-4.93,4.44-12.13,3.06-15.55-1.3-7.56-4.4-12.75-14.33-14.84-23.4-3.04-6.97,5.23-8.19,12.94-7.93,9.4.33,15.76,6.46,19.03,14.58,2.67,6.62,4.47,12.59-1.58,18.04Z"/>
    <path d="M1015.1,101.62c13.6,48.05,15.4,97.72,19.65,147,.31,3.55.58,7.11.83,10.67,7.06-3.85,14.08-7.78,21.24-11.45-.01-11.11.62-22.27-.43-33.28-3.1-32.34-6.25-64.75-11.63-96.75-3.72-22.14-11.03-43.69-17.22-65.37-.85-2.97-4.51-5.13-6.88-7.67-2.25,2.36-5.1,4.38-6.65,7.13-7.24,12.91-11,26.1-2.26,40.09,1.76,2.81,2.42,6.36,3.34,9.63Z"/>
  </g>
  <path d="M645.6,70.25c-15.37,34.34-36.8,62.09-66.31,80.36-23.61,14.61-43.48,26.15-68.97,37.48-18.39,8.17-39.7,19.72-59.49,26.79,5.82-4.73,11.23-10.11,17.52-14.1,37.86-24.03,76.62-46.71,113.6-72,18.43-12.61,35.77-27.86,50.26-45.11,7.26-8.64,7.87-15.79-5.08-21.95-25.75-12.26-30.33-22.02-22.75-41.84,4.17-10.9,12.42-20.61,23.75-18.57,7.13,1.29,12.46,4.53,16.68,12.2.61,1.1,4.68,11.31,4.89,12.66,2.65,17.77-8.26,25.19,10.22,34.87,9.33,4.89,14.83,22.82,17.13,29.92-1.1.42-.04,1.43-1.14,1.85-8.69-6.78-19.55-14.16-30.31-22.55M608.24,25.93c.17,2.19-2.72-1.77-1.19-.2,10.44,10.66,22.39,17.42,34.83,23.83-.4-14.66-3.43-25.43-14.72-29.1-5.17-1.68-11.89-1.17-18.92,5.47"/>
  <path d="M717.95,140.67c10.37-40.33,3.51-76.55-19.38-111.55-3.99-6.1-.82-15.56-1-26.3,41.21,30.1,48.46,104.53,20.38,137.86"/>
  <path d="M936.55,401.02c-1.15,1.8-2.23,3.64-3.25,5.51-2.12,3.89-3.99,7.91-5.7,12,7.75,15.77,10.47,33.08,8,52.4,13.4-18.66,12.79-46.57.95-69.92Z"/>
  <path d="M1239.06,120.09c-1.15,2.15-2.23,4.34-3.25,6.58-2.12,4.64-3.99,9.44-5.7,14.33,7.75,18.82,10.47,39.49,8,62.56,13.4-22.27,12.79-55.6.95-83.47Z"/>
  <path d="M554.89,261.89c-1.15,1.8-2.23,3.64-3.25,5.51-2.12,3.89-3.99,7.91-5.7,12,7.75,15.77,10.47,33.08,8,52.4,13.4-18.66,12.79-46.57.95-69.92Z"/>
  <path d="M207.74,175.28c.47-10.21.79-20.43,1.49-30.61.34-4.92.91-9.98,2.2-14.59,2-7.17,4.02-15.52,12.15-12.53,7.21,2.65,9.84,12.35,6.72,23.17-.54.13-1.23.61-1.64.35-10.63-6.76-13.09-5.33-14.22,10.15-.98,13.32-.89,26.77-1.62,40.14-.26,4.67-1.57,9.25-2.79,16.04-6.02-13.48-10.78-24.75-16.03-35.62-2.7-5.6-5.09-11.66-12.56-7.46-2.56,1.44-10.11-3.94-11.1-7.98-1.24-5.01.96-12.88,3.7-17.49,1.33-2.24,8.75-1.89,10.85.73,6.66,8.33,12.2,18.19,17.98,27.66,1.51,2.48,2.31,5.69,3.44,8.57.48-.17.96-.35,1.44-.52"/>
  <path d="M1194.9,131.56c.63-11.39,1.06-22.8,1.99-34.16.45-5.49,1.22-11.13,2.94-16.28,2.67-8,5.38-17.32,16.25-13.99,9.65,2.96,13.16,13.79,8.99,25.86-.72.15-1.65.68-2.19.39-14.22-7.54-17.5-5.94-19.02,11.32-1.31,14.87-1.18,29.88-2.17,44.79-.34,5.21-2.1,10.32-3.73,17.9-8.06-15.05-14.42-27.62-21.44-39.75-3.62-6.25-6.81-13.01-16.8-8.32-3.43,1.61-13.52-4.39-14.85-8.9-1.65-5.59,1.28-14.37,4.95-19.52,1.78-2.5,11.7-2.11,14.51.82,8.91,9.29,16.32,20.3,24.05,30.86,2.02,2.77,3.09,6.35,4.6,9.56.64-.19,1.28-.39,1.93-.58"/>
  <path d="M448.79,66.22c.63-11.39,1.06-22.8,1.99-34.16.45-5.49,1.22-11.13,2.94-16.28,2.67-8,5.38-17.32,16.25-13.99,9.65,2.96,13.16,13.79,8.99,25.86-.72.15-1.65.68-2.19.39-14.22-7.54-17.5-5.94-19.02,11.32-1.31,14.87-1.18,29.88-2.17,44.79-.34,5.21-2.1,10.32-3.73,17.9-8.06-15.05-14.42-27.62-21.44-39.75-3.62-6.25-6.81-13.01-16.8-8.32-3.43,1.61-13.52-4.39-14.85-8.9-1.65-5.59,1.28-14.37,4.95-19.52,1.78-2.5,11.7-2.11,14.51.82,8.91,9.29,16.32,20.3,24.05,30.86,2.02,2.77,3.09,6.35,4.6,9.56.64-.19,1.28-.39,1.93-.58"/>
  <path d="M605.42,254.49c.63-11.39,1.06-22.8,1.99-34.16.45-5.49,1.22-11.13,2.94-16.28,2.67-8,5.38-17.32,16.25-13.99,9.65,2.96,13.16,13.79,8.99,25.86-.72.15-1.65.68-2.19.39-14.22-7.54-17.5-5.94-19.02,11.32-1.31,14.87-1.18,29.88-2.17,44.79-.34,5.21-2.1,10.32-3.73,17.9-8.06-15.05-14.42-27.62-21.44-39.75-3.62-6.25-6.81-13.01-16.8-8.32-3.43,1.61-13.52-4.39-14.85-8.9-1.65-5.59,1.28-14.37,4.95-19.52,1.78-2.5,11.7-2.11,14.51.82,8.91,9.29,16.32,20.3,24.05,30.86,2.02,2.77,3.09,6.35,4.6,9.56.64-.19,1.28-.39,1.93-.58"/>
  <path d="M985.68,185.21c.63-11.39,1.06-22.8,1.99-34.16.45-5.49,1.22-11.13,2.94-16.28,2.67-8,5.38-17.32,16.25-13.99,9.65,2.96,13.16,13.79,8.99,25.86-.72.15-1.65.68-2.19.39-14.22-7.54-17.5-5.94-19.02,11.32-1.31,14.87-1.18,29.88-2.17,44.79-.34,5.21-2.1,10.32-3.73,17.9-8.06-15.05-14.42-27.62-21.44-39.75-3.62-6.25-6.81-13.01-16.8-8.32-3.43,1.61-13.52-4.39-14.85-8.9-1.65-5.59,1.28-14.37,4.95-19.52,1.78-2.5,11.7-2.11,14.51.82,8.91,9.29,16.32,20.3,24.05,30.86,2.02,2.77,3.09,6.35,4.6,9.56.64-.19,1.28-.39,1.93-.58"/>
  <path d="M539.23,463.11c14.32-5,28.62-10.07,42.98-14.99,16.34-5.59,32.82-10.79,49.07-16.65,10.91-3.93,19.1-11.28,25.27-21.34,8.29-13.5,16.48-27.2,29.61-36.93,9.64-7.15,18.29-8.09,26.64-2.39,11.7,7.99,17.32,20.02,13.68,30.73-1.92,5.65-4.51,11.22-7.69,16.26-4.6,7.29-10.78,12.83-18.5,9.39-8.77-3.9-18.01-11.73-26.24-16.68-3.75-2.26-5.83-2.77-7.97,1.52-1.61,3.22-3.95,6.08-5.62,9.27-7.98,15.28-20.42,24.19-37.33,27.59-20.44,4.11-40.74,8.96-61.15,13.21-7.34,1.53-14.84,2.28-22.27,3.39-.16-.8-.32-1.61-.47-2.41ZM688.49,389.62c-.39.65-.79,1.31-1.18,1.96,7.85,7.24,16.42,12.61,25.64,15.56-2.56-16.36-16.3-23.88-24.46-17.53Z"/>
  <path d="M1366,3.58c-6.42,4.23-11.94,10.92-19.39,12.31-83.33,15.66-166.95,30.51-250.51,45.52-1,.18-2.24-.33-4.64-.73,1.58-10.29,5.57-17.9,20.25-20.3,80.54-13.18,160.94-26.78,241.41-40.14,3.17-.53,6.64-.12,9.97-.15.97,1.16,1.94,2.33,2.91,3.49"/>
  <path d="M1093.78,9.08c-4.96,4.75-10.69,12.44-14.76,13.8-45.56,15.27-90.87,29.57-136.22,44.07-.54.18-.86-.48-1.77-1.05,5.66-12.1,11.13-20.95,18.99-23.21,43.1-12.45,86.33-25.4,129.49-38.07,1.7-.5,3.09.11,4.63.21-.12,1.41-.23,2.83-.35,4.24"/>
  <path d="M204.1,8.69c-4.96,4.75-10.69,12.44-14.76,13.8-45.56,15.27-90.87,29.57-136.22,44.07-.54.17-.86-.48-1.77-1.05,5.66-12.1,11.13-20.95,18.99-23.21,43.1-12.45,86.33-25.4,129.49-38.07,1.7-.5,3.09.11,4.63.21-.12,1.41-.23,2.83-.35,4.24"/>
  <path d="M197.04,40.48c-4.96,4.75-10.69,12.44-14.76,13.8-45.56,15.27-90.87,29.57-136.22,44.07-.54.17-.86-.48-1.77-1.05,5.66-12.1,11.13-20.95,18.99-23.21,43.1-12.45,86.33-25.4,129.49-38.07,1.7-.5,3.09.11,4.63.21-.12,1.41-.23,2.83-.35,4.24"/>
  <path d="M1323.35,288.77c-.09-7.64-.4-15.28-.17-22.9.11-3.68.56-7.47,2.06-10.94,2.33-5.39,4.61-11.68,16.51-9.61,10.55,1.84,15.06,9.04,11.4,17.18-.77.11-1.73.48-2.33.3-15.77-4.84-19.19-3.72-19.66,7.86-.41,9.97.74,20.02.69,30.02-.02,3.5-1.56,6.94-2.81,12.04-9.66-9.96-17.34-18.28-25.69-26.3-4.3-4.13-8.18-8.61-18.59-5.32-3.57,1.13-14.82-2.74-16.55-5.74-2.15-3.72.41-9.64,3.99-13.15,1.75-1.7,12.42-1.59,15.63.33,10.19,6.09,18.89,13.34,27.9,20.31,2.36,1.82,3.75,4.21,5.58,6.33.68-.14,1.35-.28,2.03-.42"/>
  <path d="M1214.49,444.64c-11.03.16-22.06.32-39.67.58,9.12-9.67,14.15-19.78,20.98-21.2,12.67-2.64,26.41-.33,39.67.56.55.04,2.27,7.69.73,9.89-10.2,14.52-19.15,31.2-44.15,31.14,9.32-6.79,16.34-11.91,23.36-17.03-.3-1.31-.61-2.62-.91-3.93"/>
  <path d="M339.84,286.8c-11.03.16-22.06.32-39.67.58,9.12-9.67,14.15-19.78,20.98-21.2,12.67-2.64,26.41-.33,39.67.56.55.04,2.27,7.69.73,9.89-10.2,14.52-19.15,31.2-44.15,31.14,9.32-6.79,16.34-11.91,23.36-17.03-.3-1.31-.61-2.62-.91-3.93"/>
  <path d="M801.08,23.06c-8.71.13-17.42.26-31.33.46,7.2-7.64,11.17-15.62,16.57-16.75,10.01-2.09,20.86-.26,31.33.44.44.03,1.79,6.08.57,7.81-8.06,11.47-15.12,24.64-34.87,24.59,7.36-5.37,12.9-9.41,18.45-13.45-.24-1.03-.48-2.07-.72-3.1"/>
  <path d="M969.69,108.32c-8.71.13-17.42.26-31.33.46,7.2-7.64,11.17-15.62,16.57-16.75,10.01-2.09,20.86-.26,31.33.44.44.03,1.79,6.08.57,7.81-8.06,11.47-15.12,24.64-34.87,24.59,7.36-5.37,12.9-9.41,18.45-13.45-.24-1.03-.48-2.07-.72-3.1"/>
  <path d="M58.23,21.61c-8.71.13-17.42.26-31.33.46,7.2-7.64,11.17-15.62,16.57-16.75,10.01-2.09,20.86-.26,31.33.44.44.03,1.79,6.08.57,7.81-8.06,11.47-15.12,24.64-34.87,24.59,7.36-5.37,12.9-9.41,18.45-13.45-.24-1.03-.48-2.07-.72-3.1"/>
  <path d="M563.82,25.37c-10.69.16-21.39.31-38.47.56,8.85-9.38,13.72-19.18,20.34-20.56,12.29-2.56,25.62-.32,38.47.54.54.04,2.2,7.46.71,9.59-9.9,14.08-18.57,30.26-42.81,30.19,9.04-6.59,15.84-11.55,22.65-16.51-.29-1.27-.59-2.54-.88-3.81"/>
  <path d="M848.41,438.71c-10.65.16-21.3.31-38.31.56,8.81-9.34,13.66-19.1,20.26-20.47,12.24-2.55,25.5-.32,38.3.54.53.04,2.19,7.43.7,9.55-9.85,14.02-18.49,30.12-42.63,30.06,9-6.56,15.78-11.5,22.55-16.44-.29-1.26-.59-2.53-.88-3.79"/>
  <path d="M93.52,254.89c-13.59.2-27.18.4-48.88.71,11.24-11.92,17.43-24.37,25.85-26.12,15.61-3.25,32.55-.41,48.88.69.68.05,2.8,9.48.9,12.18-12.57,17.89-23.59,38.44-54.39,38.36,11.48-8.37,20.13-14.67,28.78-20.98-.37-1.61-.75-3.23-1.12-4.84"/>
  <path d="M861.85,117.33c-10.11.15-20.21.3-36.36.53,8.36-8.86,12.96-18.12,19.22-19.43,11.61-2.42,24.21-.31,36.35.51.51.04,2.08,7.05.67,9.06-9.35,13.31-17.55,28.59-40.46,28.53,8.54-6.23,14.97-10.91,21.4-15.6-.28-1.2-.56-2.4-.84-3.6"/>
  <path d="M818.2,334.12c-5.08-.18-8.44-2.63-11.51-5.21-2.87-2.41-4.36-6.82-4.35-10.59.02-5.07,3.47-9.92,6.08-14.69,3.62-6.62,7.88-13.08,11.87-19.61-19.13,11.98-29.34,26.56-32.56,43.13-2.9,14.86,2.29,22.81,15.47,25.11,13.77,2.4,25.81-4.81,30.05-17.87-5.59.16-10.34-.1-15.05-.27Z"/>
  <path d="M412.74,271.18c-5.02.97-8.82-2.24-12.36-5.75-3.31-3.28-5.67-10.2-6.42-16.45-1.01-8.4,1.39-17.3,2.98-25.86,2.2-11.87,5.07-23.64,7.65-35.45-16.33,24.63-23.38,51.33-23.17,79.58.19,25.35,6.89,37.21,20.3,37.72,14,.53,24.35-14.42,25.85-37.12-5.45,1.66-10.17,2.41-14.83,3.32Z"/>
  <path d="M597.81,419.96c-4.13-.15-6.87-2.14-9.38-4.24-2.34-1.97-3.56-5.55-3.54-8.62.02-4.13,2.83-8.08,4.96-11.97,2.95-5.39,6.42-10.66,9.67-15.97-15.58,9.76-23.9,21.64-26.53,35.14-2.36,12.11,1.86,18.58,12.6,20.46,11.21,1.95,21.03-3.92,24.48-14.56-4.55.13-8.43-.09-12.26-.22Z"/>
  <path d="M576.29,95.94c-4.13-.15-6.87-2.14-9.38-4.24-2.34-1.97-3.56-5.55-3.54-8.62.02-4.13,2.83-8.08,4.96-11.97,2.95-5.39,6.42-10.66,9.67-15.97-15.58,9.76-23.9,21.64-26.53,35.14-2.36,12.11,1.86,18.58,12.6,20.46,11.21,1.95,21.03-3.92,24.48-14.56-4.55.13-8.43-.09-12.26-.22Z"/>
  <path d="M1141.32,179.06c-4.13-.15-6.87-2.14-9.38-4.24-2.34-1.97-3.56-5.55-3.54-8.62.02-4.13,2.83-8.08,4.96-11.97,2.95-5.39,6.42-10.66,9.67-15.97-15.58,9.76-23.9,21.64-26.53,35.14-2.36,12.11,1.86,18.58,12.6,20.46,11.21,1.95,21.03-3.92,24.48-14.56-4.55.13-8.43-.09-12.26-.22Z"/>
  <path d="M292.05,31.68c-3.09-.11-5.13-1.6-7-3.17-1.75-1.47-2.65-4.14-2.64-6.44.01-3.08,2.11-6.03,3.7-8.93,2.2-4.03,4.79-7.95,7.21-11.92-11.63,7.29-17.84,16.15-19.8,26.22-1.76,9.04,1.39,13.87,9.41,15.27,8.37,1.46,15.69-2.92,18.27-10.87-3.4.1-6.29-.06-9.15-.16Z"/>
  <path d="M1116.42,91.28c-3.45.08-5.61-2.51-7.57-5.27-1.83-2.58-2.6-7.49-2.38-11.77.3-5.75,2.92-11.44,4.96-17,2.83-7.71,6.1-15.27,9.18-22.89-13.71,14.64-21.48,31.73-24.59,50.7-2.79,17.02.3,25.74,9.18,27.62,9.26,1.96,17.88-6.87,21.49-21.92-3.82.49-7.05.45-10.26.52Z"/>
  <path d="M753.91,447.26c-4.11-.14-6.83-2.13-9.32-4.22-2.33-1.95-3.53-5.52-3.52-8.57.02-4.1,2.81-8.03,4.93-11.89,2.93-5.36,6.38-10.59,9.6-15.87-15.48,9.7-23.75,21.5-26.36,34.91-2.34,12.03,1.85,18.46,12.52,20.32,11.14,1.94,20.89-3.89,24.32-14.47-4.52.13-8.37-.08-12.18-.22Z"/>
  <path d="M1328.65,410.35c-2.76-.1-4.59-1.43-6.27-2.84-1.56-1.31-2.38-3.71-2.37-5.76.01-2.76,1.89-5.4,3.31-8,1.97-3.6,4.29-7.12,6.46-10.67-10.41,6.52-15.97,14.46-17.73,23.48-1.58,8.09,1.24,12.42,8.42,13.67,7.49,1.31,14.05-2.62,16.36-9.73-3.04.09-5.63-.06-8.19-.15Z"/>
  <path d="M1093.52,303.46c-2.76-.1-4.59-1.43-6.27-2.84-1.56-1.31-2.38-3.71-2.37-5.76.01-2.76,1.89-5.4,3.31-8,1.97-3.6,4.29-7.12,6.46-10.67-10.41,6.52-15.97,14.46-17.73,23.48-1.58,8.09,1.24,12.42,8.42,13.67,7.49,1.31,14.05-2.62,16.36-9.73-3.04.09-5.63-.06-8.19-.15Z"/>
  <path d="M947.55,21.99c-4.09-.32-6.91-1.46-9.51-2.63-2.43-1.1-3.85-2.91-4.02-4.41-.23-2.01,2.3-3.75,4.16-5.51,2.58-2.44,5.68-4.79,8.56-7.17-14.77,3.79-22.25,9.06-24.02,15.46-1.59,5.74,2.97,9.14,13.68,10.71,11.18,1.63,20.5-.62,23.26-5.58-4.48-.21-8.32-.56-12.11-.85Z"/>
  <path d="M411.56,352.11c-4.09-.32-6.91-1.46-9.51-2.63-2.43-1.1-3.85-2.91-4.02-4.41-.23-2.01,2.3-3.75,4.16-5.51,2.58-2.44,5.68-4.79,8.56-7.17-14.77,3.79-22.25,9.06-24.02,15.46-1.59,5.74,2.97,9.14,13.68,10.71,11.18,1.63,20.5-.62,23.26-5.58-4.48-.21-8.32-.56-12.11-.85Z"/>
  <path d="M1147.04,451.45c-3.42-.21-5.74-1.45-7.87-2.76-1.99-1.22-3.1-3.35-3.18-5.15-.11-2.41,2.1-4.64,3.74-6.86,2.28-3.07,4.99-6.04,7.52-9.06-12.58,5.25-19.11,11.95-20.88,19.77-1.59,7.01,2.08,10.92,11.01,12.34,9.32,1.47,17.25-1.67,19.79-7.8-3.76-.06-6.96-.3-10.13-.49Z"/>
  <path d="M595.34,187.92c-3.42-.21-5.74-1.45-7.87-2.76-1.99-1.22-3.1-3.35-3.18-5.15-.11-2.41,2.1-4.64,3.74-6.86,2.28-3.07,4.99-6.04,7.52-9.06-12.58,5.25-19.11,11.95-20.88,19.77-1.59,7.01,2.08,10.92,11.01,12.34,9.32,1.47,17.25-1.67,19.79-7.8-3.76-.06-6.96-.3-10.13-.49Z"/>
  <path d="M47.53,451.63c-3.42-.22-5.75-1.41-7.88-2.65-2-1.16-3.12-3.18-3.21-4.87-.12-2.28,2.07-4.36,3.69-6.44,2.26-2.88,4.94-5.66,7.45-8.49-12.54,4.86-19.01,11.13-20.73,18.49-1.54,6.6,2.16,10.31,11.09,11.7,9.32,1.45,17.23-1.46,19.72-7.21-3.75-.08-6.96-.33-10.13-.53Z"/>
  <path d="M229.96,435.87c4.55-.85,9.14-1.62,13.66-2.49,54.53-10.46,112.68-27.79,164.13-54.41,14.3-7.4,26.59-13.02,41.74-24.18,5.47-4.02,6.86-7.86,5.02-14.04-6.34-21.22-13.31-42.35-17.92-63.9-2.4-11.2-.56-23.23-.1-34.85.07-1.75,2.78-4.1,4.8-4.78,1.24-.42,4.27,1.39,5.19,2.9,6.82,11.2,13.41,22.52,19.85,33.91,2.45,4.34,4.32,8.97,6.76,14.12-3.3.37-5.6.63-6.77.76,1.9,10.81,5.2,21.34,5.34,31.87.44,32.42-10.09,59.49-41.57,77.01-32.15,17.89-64.64,34.94-99.93,46.71-6.17,2.06-26.01,8.58-32.68,9.14-26.33,2.23-49.25-1.74-75.05-4.43-.96-.1-22.38-5.39-23.32-5.68-.06-.59,30.9-7.08,30.84-7.67Z"/>
  <g>
    <path d="M518.57,98.81c-.4-5.64-1.11-11.27-1.84-16.9-.36.25-.96-.05-.79-.61.21-.72.35-1.45.43-2.18-.31-2.36-.61-4.72-.89-7.08.53-.19,1.06-.39,1.59-.58.33.32.65.65.97.98.43-.44.93-.82,1.44-1.16-8.05-7.22-16.6-13.86-25.52-19.71.13,1.17.03,2.49.02,3.59-.18,15.77-1.22,31.55-.51,47.29.72,15.82,3.95,31.57,4.68,47.39,1.69,36.36,2.31,72.75,3.93,109.11,3.46.13,6.92.28,10.37.44,4.83.23,9.43,4.63,14.25,4.9-1.15-28.66-2.11-61.44-3.35-90.1-1.09-25.14-2.99-50.26-4.78-75.38Z"/>
    <path d="M536.39,98.79c-3.65-12.97-7.37-25.99-12.23-38.71-3.3-8.64-8.33-16.89-13.01-25.15-1.15-2.02-4.03-4.58-6.03-4.69-2.17-.12-5.72,1.95-6.11,3.73-2.17,10.06-8.91,19.73-.75,31.04.18.24.28.53.37.83,1.7,1.65,3.37,3.32,5.02,5.04,5.29,5.51,10.35,11.3,15.16,17.33,4.23,5.3,8.28,10.82,11.95,16.61,1.13.43,2.27.85,3.33,1.34.84-2.46,2.95-5.11,2.31-7.35Z"/>
    <path d="M525.05,225.35c-6.24-.47-11.48-.92-17.72-1.31-2.03-.13-4.06-.25-6.1-.36.06,2.78.11,5.56.18,8.34,1.69,65.04,4.16,130.07,6.05,195.11.22,7.36-.25,13.59-.69,20.98-.19,3.18-.73,7.54-.53,10.74.4.07.8.14,1.2.21.02-.04.04-.06.07-.1,6.24-9.15,15.82-33.03,18.48-45.27,4.4-20.3,2.34-43.77,2.02-64.51-.65-41.27-.44-79.34-2.96-123.82"/>
  </g>
  <g>
    <path d="M264.06,91.29c-.4-5.64-1.11-11.27-1.84-16.9-.36.25-.96-.05-.79-.61.21-.72.35-1.45.43-2.18-.31-2.36-.61-4.72-.89-7.08.53-.19,1.06-.39,1.59-.58.33.32.65.65.97.98.43-.44.93-.82,1.44-1.16-8.05-7.22-16.6-13.86-25.52-19.71.13,1.17.03,2.49.02,3.59-.18,15.77-1.23,31.55-.51,47.29.72,15.82,3.95,31.57,4.68,47.39,1.69,36.36,2.31,72.75,3.93,109.11,3.46.13,6.92.28,10.37.44,4.83.23,9.43,4.63,14.25,4.9-1.15-28.66-2.11-61.44-3.35-90.1-1.09-25.14-2.99-50.26-4.78-75.38Z"/>
    <path d="M281.88,91.27c-3.65-12.97-7.37-25.99-12.23-38.71-3.3-8.64-8.33-16.89-13.01-25.15-1.15-2.02-4.03-4.58-6.03-4.69-2.17-.12-5.72,1.95-6.11,3.73-2.17,10.06-8.91,19.73-.75,31.04.18.24.28.53.37.83,1.7,1.65,3.37,3.32,5.02,5.04,5.29,5.51,10.35,11.3,15.16,17.33,4.23,5.3,8.28,10.82,11.95,16.61,1.13.43,2.27.85,3.33,1.34.84-2.46,2.95-5.11,2.31-7.35Z"/>
    <path d="M270.54,217.83c-6.24-.47-11.48-.92-17.72-1.31-2.03-.13-4.06-.25-6.1-.36.06,2.78.11,5.56.18,8.34,1.69,65.04,4.16,130.07,6.05,195.11.22,7.36-.25,13.59-.69,20.98-.19,3.18-.73,7.54-.53,10.74.4.07.8.14,1.2.21.02-.04.04-.06.07-.1,6.24-9.15,15.82-33.03,18.48-45.27,4.4-20.3,2.34-43.77,2.02-64.51-.65-41.27-.44-79.34-2.96-123.82"/>
  </g>
  <g>
    <path d="M14.75,276.14c.7,13.93,1.4,29.04,1.8,43.29,2.05-1.62,4.12-3.24,6.19-4.84,4.14-3.2,8.3-6.38,12.45-9.57-.38-11.44-.61-22.89-1.14-34.32-2.21-47.45-4.12-94.91-6.97-142.33-2.02-33.54-5.39-67.01-8.16-100.52-1.64-.29-3.27-.58-4.91-.87C10.61,39.12-1.44,46.96.14,61.92c3.47,32.72,6.27,65.51,8.45,98.33,2.56,38.6,4.23,77.26,6.15,115.89Z"/>
    <path d="M324.64,335.64c-7.43-.19-15.1,1.24-22.27-.08-43-7.86-85.85-16.46-128.81-24.49-22.62-4.23-44.98-10.19-68.61-7.12-10.85,1.41-17.24,5.04-20.85,15.46-6.7,19.33-7.38,20.97,13.26,22.59,15.76,1.24,32.95,10.53,48.18-2.72.98-.85,3.49-.36,5.2-.03,25.78,4.9,51.55,9.87,79.4,15.23-22.31,7.87-42.2,14.2-61.52,21.89-23.69,9.43-48.35,13.79-73.63,15.72-13.39,1.02-24.37-4.08-35.35-11.65-17.3-11.93-20.77-29.4-22.39-47.27-.97-10.66-1.45-21.37-1.8-32.08-1.15.9-2.3,1.82-3.46,2.72-5.09,3.97-10.18,7.94-15.2,12,.1,3.89.18,7.71.23,11.42.25,3,.44,4.49.39,6.48-.47,19.02,13.11,59.95,12.63,56.43,8.09,20.43,32.12,36.78,52.28,36.3,29.17-.7,56.47-8.07,83.69-18.29,31.03-11.66,63.32-20.23,95.21-29.69,23.8-7.06,51.63-6.3,64.97-32.8.42-.85,1.91-1.18,2.37-2.02,1.05-1.91,1.76-4,2.61-6.01-2.18-.69-4.34-1.93-6.52-1.98Z"/>
  </g>
  <path d="M870.76,171.84c-7.74-2.42-15.65-3.97-23.71-1.65-10.91,3.14-21.8,6.44-32.55,10.1-11.53,3.93-22.79,8.65-34.35,12.49-10.17,3.37-20.67,5.28-31.51,5.19-13.13-.11-19.36-11.43-18.37-21.1,2.44-23.77,14.07-42.77,30.78-59.04,6.54-6.37,10.55-6.88,16.57-2.08,4.83,3.85,6.94,9.4,6.45,15.69-.23,2.89-1.96,2.39-3.8,1.42-7.87-4.19-12.1-3.48-18.88,2.58-9.91,8.87-16.63,20.03-22.99,31.46-2.17,3.91.27,8.39,5.4,10.12,6.43,2.18,13.17,2.36,19.52.44,11.68-3.53,23.17-7.69,34.65-11.84,19.16-6.92,38.39-13.26,58.79-15.79,10.89-1.35,26.63,8.94,28.06,18.61.9,6.08.09,12.46-.42,18.66-.09,1.14-2.3,2.61-3.79,3.05-26.14,7.69-51.37,17.45-75.82,29.66-15.46,7.72-31.43,15.39-49.39,16.13-13.88.57-27.17-1.11-38.43-10.36-5.51-4.52-8.78-10.58-11.18-17.02-1.95-5.2-3.08-10.71-4.38-16.13-.24-1,.46-2.22.72-3.33.98.74,2.26,1.28,2.87,2.24,1.75,2.77,3.1,5.79,4.82,8.57,7.19,11.65,18.46,14.94,31.29,15.79,18.83,1.25,35.65-5.15,52.34-12.54,15.31-6.77,30.61-13.56,46.09-19.93,7.23-2.97,14.84-5.02,22.3-7.42,2.97-.96,6.01-1.72,9.02-2.58-.03-.47-.07-.94-.1-1.41Z"/>
</svg>